<svg width="52" height="50" viewBox="0 0 52 50" fill="none" xmlns="http://www.w3.org/2000/svg">
<path fill-rule="evenodd" clip-rule="evenodd" d="M26 0C11.635 0 0 11.4705 0 25.6323C0 36.9747 7.4425 46.5547 17.7775 49.951C19.0775 50.1753 19.565 49.4063 19.565 48.7335C19.565 48.1247 19.5325 46.1062 19.5325 43.9595C13 45.145 11.31 42.3895 10.79 40.9477C10.4975 40.2107 9.23 37.9359 8.125 37.3271C7.215 36.8465 5.915 35.661 8.0925 35.629C10.14 35.5969 11.6025 37.4873 12.09 38.2563C14.43 42.1332 18.1675 41.0438 19.6625 40.3709C19.89 38.7048 20.5725 37.5834 21.32 36.9426C15.535 36.3018 9.49 34.091 9.49 24.2866C9.49 21.4991 10.4975 19.1922 12.155 17.398C11.895 16.7571 10.985 14.1298 12.415 10.6054C12.415 10.6054 14.5925 9.93253 19.565 13.2327C21.645 12.656 23.855 12.3676 26.065 12.3676C28.275 12.3676 30.485 12.656 32.565 13.2327C37.5375 9.90049 39.715 10.6054 39.715 10.6054C41.145 14.1298 40.235 16.7571 39.975 17.398C41.6325 19.1922 42.64 21.4671 42.64 24.2866C42.64 34.1231 36.5625 36.3018 30.7775 36.9426C31.72 37.7436 32.5325 39.2816 32.5325 41.6846C32.5325 45.1129 32.5 47.8684 32.5 48.7335C32.5 49.4063 32.9875 50.2074 34.2875 49.951C39.449 48.2332 43.9341 44.9629 47.1115 40.6004C50.2889 36.2379 51.9986 31.003 52 25.6323C52 11.4705 40.365 0 26 0Z" fill="black"/>
</svg>
