<svg width="39" height="38" viewBox="0 0 39 38" fill="none" xmlns="http://www.w3.org/2000/svg">
<path d="M17.7568 27.0317C17.7568 26.3948 18.4286 26.1719 19.2836 26.1719C20.1387 26.1719 20.8105 26.363 20.8105 27.0317C20.8105 27.7005 20.3219 28.4649 19.2836 28.4649C18.2454 28.4649 17.7568 27.6687 17.7568 27.0317Z" fill="#F99E32"/>
<path d="M23.6499 28.8152C23.6499 30.0572 22.6422 31.1082 21.4513 31.1082C20.2604 31.1082 19.2527 30.1209 19.2527 28.8152C19.2527 28.7197 19.2527 28.7197 19.2527 28.7197C19.2527 28.6241 19.2527 28.5923 19.2527 28.5923C19.2527 28.5923 19.2527 28.6241 19.2527 28.7197C19.2527 28.7197 19.2527 28.7197 19.2527 28.8152C19.2527 30.0572 18.245 31.1082 17.0541 31.1082C15.8632 31.1082 14.8555 30.1209 14.8555 28.8152" stroke="#F99E32" stroke-miterlimit="10" stroke-linecap="round"/>
<path d="M15.375 22.8281C15.375 21.9682 16.0468 21.2676 16.8713 21.2676C17.6958 21.2676 18.3675 21.9682 18.3675 22.8281C18.3675 23.688 17.6958 24.3886 16.8713 24.3886C16.0468 24.3886 15.375 23.688 15.375 22.8281V22.8281Z" fill="#F99E32"/>
<path d="M20.2305 22.8281C20.2305 21.9682 20.9023 21.2676 21.7267 21.2676C22.5512 21.2676 23.223 21.9682 23.223 22.8281C23.223 23.688 22.5512 24.3886 21.7267 24.3886C20.9023 24.3886 20.2305 23.688 20.2305 22.8281Z" fill="#F99E32"/>
<path d="M2 35.7579V37.0317V2.96302C2 2.43116 2.43116 2 2.96303 2V2C3.20754 2 3.44289 2.09301 3.62135 2.26016L19.1779 16.8308C19.2065 16.8576 19.2443 16.8726 19.2835 16.8726V16.8726C19.3227 16.8726 19.3605 16.8576 19.3891 16.8308L34.9456 2.26016C35.1241 2.09301 35.3595 2 35.604 2V2C36.1358 2 36.567 2.43116 36.567 2.96303V37.0317V35.7579" stroke="#F99E32" stroke-width="4" stroke-miterlimit="10" stroke-linecap="round"/>
</svg>
