<svg width="50" height="50" viewBox="0 0 50 50" fill="none" xmlns="http://www.w3.org/2000/svg">
<path d="M22.9945 49.9647C13.7956 49.0288 6.22086 43.7205 2.38972 35.5251C1.12361 32.8167 1.10118 32.5633 2.02063 31.3562C2.44318 30.8015 3.165 29.5969 3.62469 28.6794C7.79986 20.3457 11.7772 15.7568 16.8066 13.4709C18.1603 12.8556 18.283 12.8367 18.7853 13.1666C19.0798 13.3601 19.3208 13.6833 19.3208 13.8848C19.3208 14.0864 18.7163 14.8824 17.9775 15.6536C16.291 17.4143 15.7136 18.6801 15.5821 20.9053C15.4953 22.3744 15.5572 22.7773 16.028 23.8081C16.6878 25.2529 17.3027 25.8888 20.2678 28.1935C21.5226 29.1688 23.2616 30.7079 24.1323 31.6136C29.6247 37.3269 31.6699 45.525 28.5081 49.153C27.9189 49.829 27.8075 49.8632 25.8889 49.9572C24.7868 50.0112 23.4843 50.0146 22.9945 49.9647ZM34.5381 47.6259C35.0134 45.8655 35.1725 43.9301 35.0834 40.9931C34.994 38.0473 34.9234 37.5809 34.369 36.2735C32.255 31.2883 32.1187 28.8055 33.822 26.3059C35.0905 24.4442 36.1213 24.1193 41.9196 23.7532C46.3022 23.4764 47.0687 23.2762 46.5914 22.5327C46.471 22.3452 45.5459 21.8587 44.5356 21.4515C40.5896 19.8615 37.303 17.3775 34.9815 14.2307C32.6043 11.0085 30.1347 9.23719 27.1582 8.61952C22.8859 7.73298 17.5715 8.92894 13.3056 11.7369C9.54843 14.21 6.35295 17.6821 2.40214 23.5843C0.213977 26.8533 0.213977 26.8533 0.0661737 26.0635C-0.117219 25.0835 0.0935468 22.4371 0.538112 20.1377C1.70746 14.0896 5.1172 8.66572 10.0757 4.96637C19.3204 -1.93086 32.1897 -1.61359 40.9826 5.72832C53.4021 16.0985 52.9178 35.3446 39.9932 45.0466C38.3418 46.2862 35.9123 47.7003 34.9292 47.994C34.4505 48.1371 34.4103 48.0993 34.5381 47.6259V47.6259ZM28.8179 17.5637C28.007 16.6655 28.6971 15.0704 29.8966 15.0704C30.2027 15.0704 30.6536 15.2713 30.8985 15.5168C31.1434 15.7623 31.3438 16.2143 31.3438 16.5212C31.3438 17.7433 29.6217 18.4541 28.8179 17.5637Z" fill="black"/>
</svg>
