<svg width="50" height="50" viewBox="0 0 50 50" fill="none" xmlns="http://www.w3.org/2000/svg">
<path d="M23.2353 30.3529C23.2353 34.5588 21.0441 37.2059 17.5441 37.2059C14.0441 37.2059 11.8529 34.5441 11.8529 30.3529C11.8529 26.1324 14.0441 23.4853 17.5441 23.4853C21.0441 23.4853 23.2353 26.1324 23.2353 30.3529ZM28.1176 15.5147L26.5882 15.6176C25.7206 15.6765 25.3382 15.9853 25.3382 16.5441C25.3382 17.1324 25.8235 17.4559 26.5 17.4559C27.4265 17.4559 28.1176 16.8529 28.1176 16.0441V15.5147ZM50 25C50 38.9559 38.9559 50 25 50C11.0441 50 0 38.9559 0 25C0 11.0441 11.0441 0 25 0C38.9559 0 50 11.0441 50 25ZM30.7941 15.2059C30.7941 17.2353 31.9118 18.4706 33.7353 18.4706C35.2794 18.4706 36.25 17.6029 36.4118 16.3676H35.2059C35.0441 17.0441 34.5147 17.4118 33.7353 17.4118C32.7059 17.4118 32.0735 16.5735 32.0735 15.2059C32.0735 13.8529 32.7059 13.0441 33.7353 13.0441C34.5588 13.0441 35.0735 13.5147 35.2059 14.1176H36.4118C36.25 12.9118 35.3088 12 33.7353 12C31.9118 11.9853 30.7941 13.2206 30.7941 15.2059ZM13.9853 12.1176V18.3529H15.2206V14.5294C15.2206 13.7206 15.7941 13.0735 16.5441 13.0735C17.2794 13.0735 17.75 13.5147 17.75 14.2206V18.3529H18.9559V14.4118C18.9559 13.6618 19.4706 13.0735 20.2794 13.0735C21.0882 13.0735 21.4853 13.4853 21.4853 14.3529V18.3529H22.7206V14.0441C22.7206 12.75 21.9853 11.9853 20.7206 11.9853C19.8529 11.9853 19.1324 12.4265 18.8235 13.1029H18.7206C18.4412 12.4265 17.8529 11.9853 17 11.9853C16.1618 11.9853 15.5294 12.3971 15.2647 13.1029H15.1765V12.1029L13.9853 12.1176ZM25.4265 30.3529C25.4265 24.9265 22.3971 21.5147 17.5441 21.5147C12.6912 21.5147 9.66177 24.9265 9.66177 30.3529C9.66177 35.7794 12.6912 39.1765 17.5441 39.1765C22.3971 39.1765 25.4265 35.7647 25.4265 30.3529ZM26.1912 18.4559C27.0147 18.4559 27.6912 18.1029 28.0735 17.4706H28.1765V18.3529H29.3676V14.0882C29.3676 12.7794 28.4853 12 26.9118 12C25.4853 12 24.4853 12.6912 24.3529 13.7353H25.5441C25.6765 13.2794 26.1618 13.0294 26.8529 13.0294C27.6912 13.0294 28.1324 13.4118 28.1324 14.1029V14.6471L26.4412 14.75C24.9559 14.8382 24.1176 15.4853 24.1176 16.6176C24.1029 17.7353 24.9853 18.4559 26.1912 18.4559ZM39.6765 34.0294C39.6765 31.6029 38.2647 30.1912 34.7059 29.4118L32.8088 29C30.4706 28.4853 29.5588 27.5588 29.5588 26.2206C29.5588 24.4853 31.2059 23.4412 33.3382 23.4412C35.5735 23.4412 37.0441 24.5882 37.2353 26.4706H39.3676C39.2647 23.5735 36.8088 21.5294 33.3971 21.5294C29.8529 21.5294 27.3676 23.5147 27.3676 26.3235C27.3676 28.75 28.8529 30.3088 32.2794 31.0588L34.1765 31.4706C36.5441 31.9853 37.5 32.9412 37.5 34.3676C37.5 36.0441 35.8088 37.2647 33.5 37.2647C31.0441 37.2647 29.3382 36.1471 29.0882 34.3088H26.9559C27.1618 37.2647 29.6471 39.1765 33.3824 39.1765C37.1912 39.1765 39.6765 37.1912 39.6765 34.0294Z" fill="black"/>
</svg>
