<svg width="237" height="572" viewBox="0 0 237 572" fill="none" xmlns="http://www.w3.org/2000/svg">
<g clip-path="url(#clip0_11_79)">
<path d="M49 560.785V372.785H71V560.785H49Z" fill="#77500C"/>
<path d="M163 559.785V371.785H185V559.785H163Z" fill="#77500C"/>
<path d="M36 404.118L24 380.752L36 369.118H206L217 379.752L206 404.118H36Z" fill="#77500C"/>
<path d="M49 396.785V208.785H71V396.785H49Z" fill="#77500C"/>
<path d="M163 395.785V207.785H185V395.785H163Z" fill="#77500C"/>
<path d="M49 235.785V47.785H71V235.785H49Z" fill="#77500C"/>
<path d="M40.385 369.188V281.5H127.385V369.188H40.385Z" fill="#77500C"/>
<path d="M53.4086 340.857C47.3925 324.434 57.6295 306.529 76.2736 300.865C94.9176 295.2 114.909 303.921 120.925 320.344C126.941 336.766 116.704 354.671 98.0598 360.336C79.4157 366 59.4247 357.279 53.4086 340.857H53.4086Z" fill="black" stroke="black" stroke-width="2" stroke-miterlimit="10"/>
<path d="M30 234.785L18 211.418L30 199.785H200L211 210.418L200 234.785H30Z" fill="#77500C"/>
<path d="M35 571.785L23 548.418L35 536.785H205L216 547.418L205 571.785H35Z" fill="#77500C"/>
<path d="M22.7959 548.147L34.7959 536.514H204.796L215.796 547.147L22.7959 548.147Z" fill="#FFC35A"/>
<path d="M12 79.785L0 56.4183L12 44.785H107L118 55.4183L107 79.785H12Z" fill="#77500C"/>
<path fill-rule="evenodd" clip-rule="evenodd" d="M59.8315 502.03L65.7896 503.275L67.4581 502.293C72.9333 499.069 80.3837 497.675 86.164 498.794L87.9839 499.146L93.2063 495.665C96.0779 493.75 98.7193 492.123 99.0747 492.05C99.937 491.871 101.426 492.667 101.824 493.518C102.133 494.181 102.092 495.032 101.447 501.283C100.868 506.886 100.829 506.611 102.492 508.586C106.419 513.249 109.256 519.129 110.477 525.14C111.344 529.401 111.296 531.564 110.269 534.563C108.314 540.268 102.379 545.13 94.2189 547.71C90.7449 548.808 81.9066 550.518 78.2666 550.795C71.7956 551.288 66.1957 550.12 61.8703 547.377C57.7843 544.785 55.9106 541.748 54.7961 535.909C53.6551 529.929 53.9803 523.697 55.7359 517.902L56.6223 514.976L55.52 512.836C54.9139 511.66 53.8455 509.591 53.1461 508.239C50.6889 503.491 50.6808 503.46 51.596 501.939C51.89 501.451 52.4387 501.061 52.9784 500.956C53.4705 500.861 56.5545 501.344 59.8315 502.03Z" fill="#FF7319"/>
<path d="M88.7117 520.307L90.1534 520.429C93.8742 521.07 97.4104 522.515 100.516 524.662L101.348 525.237C104.284 527.756 106.292 531.029 107.001 534.449C107.505 536.874 107.369 538.126 106.412 539.905C104.592 543.291 99.6222 546.367 92.9733 548.224C90.1424 549.014 82.9888 550.397 80.0623 550.72C74.8586 551.295 70.4267 550.871 67.086 549.478C63.9303 548.163 62.5658 546.491 61.935 543.165C61.2886 539.759 61.8279 536.142 63.4929 532.714L64.3335 530.983C66.1373 528.331 68.4827 526.092 71.2149 524.413L72.1973 523.809L73.5772 523.166C78.1055 521.057 84.1335 519.918 88.7117 520.307Z" fill="#FEFFFF"/>
<path d="M100.614 500.266C100.167 505.56 100.115 505.805 99.5529 505.192C98.4438 503.982 93.0393 500.58 91.2384 499.958L89.4411 499.337L93.7414 496.408C100.885 491.542 101.329 491.791 100.614 500.266H100.614Z" fill="#77500C"/>
<path d="M53.6009 502.03C54.3046 501.894 63.6988 503.691 64.4326 504.102C64.6031 504.198 64.2348 504.673 63.6137 505.157C62.2915 506.19 59.5013 509.93 58.2306 512.374C57.7411 513.315 57.3249 514.003 57.3052 513.901C57.2855 513.8 56.118 511.491 54.7103 508.771C52.3107 504.133 52.1725 503.774 52.4889 503.003C52.6972 502.495 53.1231 502.122 53.6009 502.03Z" fill="#77500C"/>
<path fill-rule="evenodd" clip-rule="evenodd" d="M85.8732 522.101C86.5504 522.171 87.1926 522.627 87.122 523.304C86.9882 524.588 85.8393 525.519 84.5561 525.385C83.2729 525.252 82.3412 524.103 82.475 522.82C82.5457 522.142 83.2678 521.829 83.9453 521.9L85.8732 522.101Z" fill="#77500C" stroke="black" stroke-width="2" stroke-miterlimit="10"/>
<path d="M90.4045 518.182C89.0254 518.142 87.9404 516.991 87.9812 515.611C88.0219 514.232 89.1729 513.147 90.552 513.188C91.9311 513.229 93.016 514.38 92.9753 515.759C92.9346 517.138 91.7836 518.223 90.4045 518.182Z" fill="black"/>
<path d="M76.6612 515.289C76.7019 513.91 77.8529 512.825 79.232 512.866C80.6111 512.907 81.696 514.058 81.6553 515.437C81.6146 516.816 80.4636 517.901 79.0845 517.86C77.7054 517.819 76.6204 516.668 76.6612 515.289Z" fill="black"/>
<path d="M17.5978 211.016L29.5978 199.383H199.598L210.598 210.016L17.5978 211.016Z" fill="#FFC35A"/>
<path d="M90.6724 528.064C90.5771 528.978 90.0844 529.768 89.3854 530.28C88.773 530.728 88.0023 530.963 87.2017 530.879C85.4874 530.701 84.2018 529.18 84.3866 527.409C84.3985 527.294 84.5768 525.585 84.5768 525.585C84.5887 525.47 84.4164 527.123 84.4164 527.123C84.4164 527.123 84.4104 527.18 84.3985 527.294C84.3985 527.294 84.3985 527.294 84.3866 527.409C84.2078 529.123 82.6302 530.403 80.9159 530.224C79.2016 530.045 77.916 528.525 78.1008 526.753" stroke="black" stroke-width="2" stroke-miterlimit="10" stroke-linecap="round"/>
<path fill-rule="evenodd" clip-rule="evenodd" d="M139.22 153.355L144.833 155.709L146.658 155.062C152.645 152.936 160.225 152.982 165.687 155.178L167.407 155.87L173.196 153.444C176.379 152.109 179.281 151.014 179.644 151.009C180.524 150.997 181.835 152.061 182.064 152.973C182.242 153.682 182.04 154.509 180.219 160.524C178.588 165.916 178.601 165.639 179.859 167.893C182.829 173.217 184.497 179.529 184.555 185.662C184.597 190.011 184.139 192.125 182.561 194.874C179.559 200.104 172.808 203.75 164.307 204.734C160.688 205.153 151.685 205.153 148.059 204.733C141.612 203.989 136.336 201.779 132.61 198.264C129.091 194.944 127.828 191.606 127.842 185.662C127.858 179.574 129.36 173.517 132.185 168.16L133.61 165.456L132.935 163.146C132.563 161.876 131.907 159.642 131.477 158.182C129.966 153.054 129.964 153.021 131.151 151.703C131.533 151.279 132.145 151 132.695 151C133.196 151 136.133 152.059 139.22 153.355H139.22Z" fill="#FF7319"/>
<path d="M164.104 176.784L165.496 177.177C169.027 178.514 172.225 180.604 174.866 183.302L175.574 184.024C177.977 187.055 179.328 190.65 179.375 194.142C179.409 196.618 179.038 197.822 177.761 199.387C175.33 202.366 169.867 204.442 162.986 205.002C160.057 205.24 152.771 205.24 149.836 205.002C144.618 204.577 140.347 203.319 137.332 201.318C134.483 199.427 133.461 197.526 133.473 194.142C133.486 190.675 134.702 187.226 136.988 184.176L138.142 182.636C140.416 180.375 143.144 178.622 146.146 177.493L147.225 177.086L148.702 176.717C153.548 175.507 159.682 175.533 164.104 176.784V176.784Z" fill="#FEFFFF"/>
<path d="M179.595 159.368C178.151 164.481 178.053 164.711 177.618 164.003C176.759 162.604 172.098 158.238 170.448 157.285L168.802 156.335L173.58 154.275C181.518 150.854 181.907 151.182 179.595 159.368L179.595 159.368Z" fill="#77500C"/>
<path d="M133.102 152.172C133.819 152.172 142.701 155.721 143.343 156.263C143.493 156.39 143.041 156.786 142.339 157.144C140.845 157.906 137.395 161.049 135.683 163.207C135.024 164.039 134.485 164.634 134.485 164.531C134.485 164.427 133.777 161.939 132.911 159.001C131.436 153.992 131.369 153.614 131.826 152.916C132.127 152.457 132.616 152.172 133.102 152.172Z" fill="#77500C"/>
<path fill-rule="evenodd" clip-rule="evenodd" d="M157.477 178.881C158.157 178.881 158.843 179.268 158.843 179.949C158.843 181.239 157.797 182.285 156.507 182.285C155.217 182.285 154.171 181.239 154.171 179.949C154.171 179.268 154.857 178.881 155.538 178.881H157.477Z" fill="#77500C" stroke="black" stroke-width="2" stroke-miterlimit="10"/>
<path d="M161.633 175.435C160.259 175.307 159.25 174.089 159.379 172.715C159.507 171.342 160.725 170.332 162.099 170.461C163.472 170.59 164.482 171.807 164.353 173.181C164.224 174.555 163.007 175.564 161.633 175.435Z" fill="black"/>
<path d="M148.102 171.671C148.231 170.298 149.449 169.288 150.822 169.417C152.196 169.546 153.205 170.764 153.077 172.137C152.948 173.511 151.73 174.52 150.357 174.392C148.983 174.263 147.974 173.045 148.102 171.671Z" fill="black"/>
<path d="M0.224457 56.6621L11.8798 45.0288H107.037L117.721 55.6621L0.224457 56.6621Z" fill="#FFC35A"/>
<path d="M162.868 184.315C162.868 185.234 162.46 186.071 161.818 186.652C161.256 187.162 160.513 187.475 159.708 187.475C157.985 187.475 156.549 186.096 156.549 184.315C156.549 184.2 156.549 182.481 156.549 182.481C156.549 182.366 156.549 184.028 156.549 184.028C156.549 184.028 156.549 184.085 156.549 184.2C156.549 184.2 156.549 184.2 156.549 184.315C156.549 186.039 155.112 187.475 153.389 187.475C151.665 187.475 150.229 186.096 150.229 184.315" stroke="black" stroke-width="2" stroke-miterlimit="10" stroke-linecap="round"/>
<path fill-rule="evenodd" clip-rule="evenodd" d="M54.2196 2.35498L59.8328 4.70915L61.6575 4.06156C67.6453 1.93593 75.2248 1.98244 80.6875 4.17846L82.4074 4.86975L88.1958 2.44398C91.3788 1.10914 94.281 0.0137597 94.6439 0.00889969C95.5245 -0.00283031 96.8354 1.061 97.064 1.97274C97.2419 2.68223 97.0401 3.50943 95.2195 9.5243C93.5877 14.9158 93.6015 14.6388 94.8591 16.893C97.8289 22.2166 99.4974 28.5292 99.5553 34.6622C99.5969 39.0105 99.139 41.1253 97.5611 43.8738C94.5585 49.1044 87.8083 52.7505 79.307 53.7342C75.6875 54.1529 66.6854 54.1529 63.0591 53.7334C56.6122 52.9888 51.336 50.779 47.6101 47.2643C44.0906 43.9442 42.8278 40.6063 42.8423 34.6622C42.8577 28.5741 44.3604 22.5172 47.1846 17.1604L48.6105 14.4563L47.9346 12.1463C47.5628 10.8761 46.9067 8.64208 46.4767 7.18225C44.9659 2.05363 44.9639 2.02127 46.1511 0.70261C46.5326 0.27869 47.1454 0 47.6951 0C48.1963 0 51.1325 1.05938 54.2196 2.35498H54.2196Z" fill="#FF7319"/>
<path d="M79.1036 25.7839L80.4958 26.1774C84.0271 27.5139 87.2247 29.6039 89.8664 32.3015L90.5739 33.024C92.9774 36.0549 94.3276 39.6496 94.375 43.1416C94.4085 45.618 94.0376 46.8222 92.7606 48.3872C90.3304 51.3659 84.8668 53.4418 77.9863 54.002C75.057 54.2402 67.7708 54.2402 64.8361 54.0016C59.6181 53.5773 55.3474 52.3193 52.3319 50.3178C49.4834 48.4272 48.4613 46.5265 48.4734 43.1416C48.4855 39.6751 49.7019 36.2263 51.9877 33.176L53.1417 31.6361C55.4162 29.3754 58.1441 27.6223 61.1455 26.4925L62.2247 26.086L63.7015 25.7171C68.5478 24.5068 74.6824 24.5331 79.1036 25.7838L79.1036 25.7839Z" fill="#FEFFFF"/>
<path d="M94.5949 8.36832C93.1509 13.4812 93.053 13.7109 92.6177 13.0026C91.7586 11.6043 87.0984 7.23815 85.4484 6.28515L83.8017 5.33459L88.58 3.27487C96.5179 -0.146366 96.9066 0.182494 94.5949 8.3683L94.5949 8.36832Z" fill="#77500C"/>
<path d="M48.1024 1.17191C48.8192 1.17191 57.7011 4.72056 58.3434 5.2634C58.4927 5.3896 58.0409 5.78601 57.3391 6.14399C55.8449 6.90647 52.3953 10.0486 50.6835 12.2074C50.0241 13.0386 49.485 13.6345 49.485 13.5309C49.485 13.4274 48.7771 10.9389 47.9115 8.00143C46.4362 2.99213 46.3687 2.61354 46.8258 1.91618C47.1267 1.45707 47.6158 1.17191 48.1024 1.17191H48.1024Z" fill="#77500C"/>
<path fill-rule="evenodd" clip-rule="evenodd" d="M72.4766 27.8814C73.1575 27.8814 73.8435 28.2681 73.8435 28.9493C73.8435 30.2394 72.7974 31.2852 71.5073 31.2852C70.2171 31.2852 69.1713 30.2394 69.1713 28.9493C69.1713 28.2681 69.8571 27.8814 70.5382 27.8814H72.4766Z" fill="#77500C" stroke="black" stroke-width="2" stroke-miterlimit="10"/>
<path d="M79.8899 25.2517C78.5102 25.2517 77.3918 24.1332 77.3918 22.7535C77.3918 21.3738 78.5102 20.2554 79.8899 20.2554C81.2696 20.2554 82.3881 21.3738 82.3881 22.7535C82.3881 24.1332 81.2696 25.2517 79.8899 25.2517Z" fill="black"/>
<path d="M66.0672 22.7657C66.0672 21.386 67.1857 20.2675 68.5653 20.2675C69.945 20.2675 71.0635 21.386 71.0635 22.7657C71.0635 24.1454 69.945 25.2639 68.5653 25.2639C67.1856 25.2639 66.0672 24.1454 66.0672 22.7657Z" fill="black"/>
<path d="M77.8684 33.3152C77.8684 34.2339 77.4603 35.071 76.8182 35.6524C76.2556 36.1619 75.5134 36.4751 74.7085 36.4751C72.9849 36.4751 71.5485 35.0962 71.5485 33.3152C71.5485 33.2003 71.5485 31.4813 71.5485 31.4813C71.5485 31.3664 71.5485 33.0279 71.5485 33.0279C71.5485 33.0279 71.5485 33.0853 71.5485 33.2002C71.5485 33.2002 71.5485 33.2003 71.5485 33.3152C71.5485 35.0388 70.1122 36.4751 68.3886 36.4751C66.665 36.4751 65.2286 35.0962 65.2286 33.3152" stroke="black" stroke-width="2" stroke-miterlimit="10" stroke-linecap="round"/>
<path d="M131 489.785L119 466.418L131 454.785H226L237 465.418L226 489.785H131Z" fill="#77500C"/>
<path d="M118.432 466.712L130.15 455.079H225.819L236.561 465.712L118.432 466.712Z" fill="#FFC35A"/>
<path fill-rule="evenodd" clip-rule="evenodd" d="M74.4142 319.256L79.1366 321.237L80.6718 320.692C85.7094 318.904 92.0861 318.943 96.682 320.79L98.1289 321.372L102.999 319.331C105.677 318.208 108.118 317.287 108.424 317.282C109.164 317.273 110.267 318.168 110.46 318.935C110.609 319.532 110.44 320.227 108.908 325.288C107.535 329.824 107.547 329.591 108.605 331.487C111.103 335.966 112.507 341.277 112.556 346.437C112.591 350.095 112.205 351.874 110.878 354.187C108.352 358.587 102.673 361.655 95.5205 362.482C92.4754 362.834 84.9018 362.834 81.851 362.482C76.4271 361.855 71.9881 359.996 68.8535 357.039C65.8925 354.246 64.8301 351.438 64.8423 346.437C64.8552 341.315 66.1195 336.219 68.4955 331.712L69.6951 329.437L69.1265 327.494C68.8137 326.425 68.2617 324.546 67.9 323.317C66.6289 319.003 66.6272 318.975 67.626 317.866C67.947 317.509 68.4625 317.275 68.925 317.275C69.3466 317.275 71.8169 318.166 74.4142 319.256H74.4142Z" fill="#FF7319"/>
<path d="M95.3494 338.967L96.5207 339.298C99.4916 340.423 102.182 342.181 104.404 344.451L105 345.058C107.022 347.608 108.158 350.633 108.197 353.571C108.226 355.654 107.914 356.667 106.839 357.984C104.795 360.49 100.198 362.236 94.4095 362.708C91.9449 362.908 85.815 362.908 83.346 362.707C78.956 362.35 75.363 361.292 72.826 359.608C70.4296 358.017 69.5696 356.418 69.5798 353.571C69.59 350.654 70.6133 347.753 72.5364 345.186L73.5073 343.891C75.4209 341.989 77.716 340.514 80.241 339.563L81.149 339.221L82.3914 338.911C86.4687 337.893 91.6298 337.915 95.3494 338.967Z" fill="#FEFFFF"/>
<path d="M108.382 324.315C107.168 328.617 107.085 328.81 106.719 328.214C105.996 327.038 102.076 323.365 100.687 322.563L99.302 321.763L103.322 320.03C110 317.152 110.327 317.428 108.382 324.315H108.382Z" fill="#77500C"/>
<path d="M69.2677 318.261C69.8707 318.261 77.3432 321.246 77.8836 321.703C78.0092 321.809 77.6291 322.143 77.0386 322.444C75.7815 323.085 72.8794 325.729 71.4392 327.545C70.8845 328.245 70.4308 328.746 70.4308 328.659C70.4308 328.572 69.8353 326.478 69.107 324.007C67.8659 319.792 67.8091 319.474 68.1936 318.887C68.4468 318.501 68.8583 318.261 69.2677 318.261Z" fill="#77500C"/>
<path fill-rule="evenodd" clip-rule="evenodd" d="M89.774 340.732C90.3469 340.732 90.924 341.057 90.924 341.63C90.924 342.716 90.0439 343.596 88.9585 343.596C87.8731 343.596 86.9933 342.716 86.9933 341.63C86.9933 341.057 87.5702 340.732 88.1433 340.732H89.774Z" fill="#77500C" stroke="black" stroke-width="2" stroke-miterlimit="10"/>
<path d="M96.0588 335.469C94.898 335.469 93.9571 334.528 93.9571 333.367C93.9571 332.206 94.898 331.265 96.0588 331.265C97.2195 331.265 98.1605 332.206 98.1605 333.367C98.1605 334.528 97.2196 335.469 96.0588 335.469Z" fill="black"/>
<path d="M84.4296 333.377C84.4296 332.217 85.3705 331.276 86.5313 331.276C87.692 331.276 88.633 332.217 88.633 333.377C88.633 334.538 87.692 335.479 86.5313 335.479C85.3705 335.479 84.4296 334.538 84.4296 333.377Z" fill="black"/>
<path d="M94.3102 345.303C94.3102 346.076 93.9669 346.781 93.4267 347.27C92.9533 347.698 92.3289 347.962 91.6517 347.962C90.2016 347.962 88.9932 346.802 88.9932 345.303C88.9932 345.207 88.9932 343.761 88.9932 343.761C88.9932 343.664 88.9932 345.062 88.9932 345.062C88.9932 345.062 88.9932 345.11 88.9932 345.207C88.9932 345.207 88.9932 345.207 88.9932 345.303C88.9932 346.754 87.7848 347.962 86.3347 347.962C84.8846 347.962 83.6762 346.802 83.6762 345.303" stroke="black" stroke-width="2" stroke-miterlimit="10" stroke-linecap="round"/>
<path fill-rule="evenodd" clip-rule="evenodd" d="M160.693 426.446L166.751 427.045L168.304 425.889C173.401 422.095 180.659 419.91 186.526 420.401L188.373 420.556L193.191 416.534C195.841 414.322 198.292 412.421 198.638 412.31C199.476 412.039 201.042 412.67 201.528 413.474C201.907 414.1 201.958 414.95 201.988 421.234C202.014 426.867 201.946 426.599 203.811 428.383C208.216 432.597 211.668 438.139 213.528 443.984C214.847 448.127 215.032 450.283 214.333 453.374C213.002 459.257 207.623 464.728 199.788 468.169C196.452 469.634 187.848 472.283 184.259 472.949C177.878 474.135 172.185 473.575 167.59 471.312C163.25 469.175 161.061 466.356 159.326 460.671C157.549 454.848 157.203 448.617 158.326 442.666L158.893 439.662L157.567 437.653C156.838 436.549 155.554 434.607 154.713 433.338C151.76 428.881 151.749 428.851 152.496 427.241C152.736 426.724 153.239 426.277 153.765 426.115C154.244 425.968 157.362 426.116 160.693 426.446H160.693Z" fill="#FF7319"/>
<path d="M191.369 441.516L192.816 441.483C196.584 441.721 200.255 442.778 203.573 444.578L204.462 445.061C207.651 447.25 209.999 450.289 211.072 453.612C211.833 455.969 211.833 457.229 211.073 459.1C209.626 462.662 205.016 466.254 198.604 468.814C195.875 469.903 188.911 472.047 186.036 472.683C180.924 473.813 176.473 473.867 173.002 472.841C169.723 471.873 168.187 470.357 167.202 467.118C166.194 463.801 166.342 460.148 167.629 456.56L168.279 454.748C169.787 451.918 171.879 449.44 174.415 447.477L175.327 446.771L176.629 445.984C180.905 443.402 186.776 441.622 191.369 441.516H191.369Z" fill="#FEFFFF"/>
<path d="M201.051 420.313C201.175 425.625 201.149 425.873 200.524 425.324C199.292 424.241 193.553 421.439 191.696 421.014L189.842 420.59L193.803 417.215C200.383 411.61 200.851 411.81 201.051 420.313H201.051Z" fill="#77500C"/>
<path d="M154.499 427.116C155.184 426.905 164.717 427.683 165.49 428.013C165.67 428.089 165.355 428.601 164.789 429.15C163.586 430.318 161.213 434.336 160.213 436.903C159.827 437.891 159.487 438.62 159.457 438.521C159.426 438.422 158.017 436.252 156.326 433.699C153.442 429.345 153.266 429.003 153.498 428.202C153.65 427.675 154.034 427.259 154.499 427.116Z" fill="#77500C"/>
<path fill-rule="evenodd" clip-rule="evenodd" d="M181.094 448.331C181.749 448.144 182.514 448.328 182.701 448.983C183.055 450.223 182.336 451.516 181.095 451.87C179.854 452.223 178.562 451.504 178.208 450.264C178.021 449.609 178.575 449.049 179.23 448.862L181.094 448.331Z" fill="#77500C" stroke="black" stroke-width="2" stroke-miterlimit="10"/>
<path d="M183.949 442.471C182.646 442.923 181.222 442.233 180.77 440.929C180.318 439.625 181.009 438.202 182.312 437.75C183.616 437.298 185.039 437.989 185.491 439.292C185.943 440.596 185.253 442.019 183.949 442.471Z" fill="black"/>
<path d="M170.075 444.651C169.623 443.347 170.313 441.924 171.617 441.472C172.92 441.02 174.343 441.71 174.795 443.014C175.247 444.317 174.557 445.74 173.254 446.192C171.95 446.644 170.527 445.954 170.075 444.651Z" fill="black"/>
<path d="M187.769 452.078C188.021 452.961 187.858 453.878 187.4 454.614C186.998 455.258 186.37 455.762 185.596 455.983C183.939 456.456 182.179 455.523 181.691 453.811C181.66 453.7 181.188 452.047 181.188 452.047C181.157 451.936 181.612 453.534 181.612 453.534C181.612 453.534 181.628 453.59 181.66 453.7C181.66 453.7 181.66 453.7 181.691 453.811C182.164 455.468 181.176 457.243 179.519 457.716C177.861 458.188 176.102 457.256 175.613 455.543" stroke="black" stroke-width="2" stroke-miterlimit="10" stroke-linecap="round"/>
<path d="M60.0072 373.875V353.625C60.0072 353.625 65.4691 358.133 75.7241 358.775C76.4104 358.818 89.3961 359.455 90.0072 359.455C92.7966 359.455 100.346 358.665 104.334 357.592C112.77 355.321 118.007 351.784 118.007 351.784L115.674 373.875L60.0072 373.875Z" fill="#77500C"/>
<path d="M23.7983 379.882L35.7983 368.248H205.798L216.798 378.882L23.7983 379.882Z" fill="#FFC35A"/>
<path d="M40.3629 292.538V281.417H127.564V292.538H40.3629Z" fill="#FFC35A"/>
<path d="M94.2077 79.3159V116.587" stroke="#A0A0A0" stroke-width="2.5" stroke-miterlimit="10" stroke-linecap="round"/>
<path d="M84.4162 116.271C84.4162 110.863 88.8 106.48 94.2077 106.48C99.6154 106.48 103.999 110.863 103.999 116.271C103.999 121.679 99.6154 126.063 94.2077 126.063C88.8 126.063 84.4162 121.679 84.4162 116.271Z" fill="#FFC35A"/>
</g>
<defs>
<clipPath id="clip0_11_79">
<rect width="237" height="571.785" fill="white"/>
</clipPath>
</defs>
</svg>
