<svg width="577" height="161" viewBox="0 0 577 161" fill="none" xmlns="http://www.w3.org/2000/svg">
<g filter="url(#filter0_bd_188_155)">
<rect width="577" height="153" rx="36" fill="white"/>
</g>
<g clip-path="url(#clip0_188_155)">
<path d="M77.1108 73.4891C77.1108 72.279 78.4403 71.8555 80.1324 71.8555C81.8245 71.8555 83.154 72.2185 83.154 73.4891C83.154 74.7597 82.1871 76.2118 80.1324 76.2118C78.0777 76.2118 77.1108 74.6992 77.1108 73.4891Z" fill="black" stroke="black" stroke-miterlimit="10"/>
<path d="M88.7738 76.8773C88.7738 79.237 86.7796 81.2336 84.4227 81.2336C82.0659 81.2336 80.0717 79.358 80.0717 76.8773C80.0717 76.6958 80.0717 76.6958 80.0717 76.6958C80.0717 76.5143 80.0717 76.4538 80.0717 76.4538C80.0717 76.4538 80.0717 76.5143 80.0717 76.6958C80.0717 76.6958 80.0717 76.6958 80.0717 76.8773C80.0717 79.237 78.0775 81.2336 75.7207 81.2336C73.3639 81.2336 71.3696 79.358 71.3696 76.8773" stroke="black" stroke-width="2" stroke-miterlimit="10" stroke-linecap="round"/>
<path d="M72.397 65.5025C72.397 63.8689 73.7265 62.5378 75.3581 62.5378C76.9897 62.5378 78.3192 63.8689 78.3192 65.5025C78.3192 67.1362 76.9897 68.4673 75.3581 68.4673C73.7265 68.4673 72.397 67.1362 72.397 65.5025V65.5025Z" fill="black"/>
<path d="M82.0054 65.5025C82.0054 63.8689 83.3349 62.5378 84.9665 62.5378C86.5981 62.5378 87.9276 63.8689 87.9276 65.5025C87.9276 67.1362 86.5981 68.4673 84.9665 68.4673C83.3349 68.4673 82.0054 67.1362 82.0054 65.5025Z" fill="black"/>
<path d="M45.9282 90.0673V92.4874V25.9328H48.5872L80.0114 54.1883H80.2531L111.677 25.9328H114.336V92.4874V90.0673" stroke="black" stroke-width="8" stroke-miterlimit="10" stroke-linecap="round"/>
<path d="M164.494 69.4958H164.555V73.0051C164.555 73.4891 164.373 73.9126 164.011 74.2152C163.648 74.5177 163.286 74.6992 162.863 74.6992H135.548C135.85 79.2975 137.119 82.6252 139.415 84.6219C141.712 86.558 145.277 87.5261 150.112 87.5261C153.012 87.5261 155.671 86.679 158.089 84.9849C158.935 84.3194 159.66 84.3799 160.325 85.1664C160.687 85.5294 161.352 86.2555 162.319 87.3446C162.621 87.7076 162.742 88.1311 162.742 88.6757C162.681 89.1597 162.5 89.5832 162.077 89.8857C158.512 92.5479 154.523 93.8185 150.112 93.8185C143.706 93.8185 138.811 92.3664 135.366 89.4017C131.257 85.8925 129.142 79.9026 129.142 71.6135V71.553C129.142 63.3849 130.834 57.5765 134.158 54.1278C137.119 50.9815 141.289 49.4689 146.788 49.4689C152.287 49.4689 156.517 51.042 159.479 54.1278C162.621 57.2135 164.253 62.3563 164.494 69.4958V69.4958ZM135.487 69.4958H158.33C158.149 64.1715 157.061 60.4202 155.007 58.3631C153.315 56.4874 150.656 55.5799 146.909 55.5799C143.223 55.5799 140.443 56.4874 138.751 58.3631C136.636 60.4807 135.608 64.1715 135.487 69.4958Z" fill="black"/>
<path d="M209.697 70.5244C209.697 70.8269 209.636 71.1899 209.636 71.6134C209.697 72.037 209.697 72.4 209.697 72.7025C209.697 76.5748 209.274 79.963 208.428 82.8067C207.582 85.6504 206.252 87.8891 204.379 89.6437C201.478 92.3664 197.49 93.758 192.232 93.879H192.051C186.854 93.758 182.805 92.3664 180.025 89.6437C176.52 86.316 174.707 80.6891 174.707 72.7025C174.707 72.4 174.707 72.037 174.707 71.6134C174.707 71.1899 174.707 70.8269 174.707 70.5244C174.707 62.5378 176.46 56.9109 180.025 53.5832C182.865 50.8605 186.854 49.4689 192.051 49.3479H192.232C197.429 49.4689 201.478 50.8605 204.379 53.5832C207.884 56.9109 209.697 62.5378 209.697 70.5244ZM203.412 72.642C203.412 72.279 203.412 71.9765 203.412 71.674V71.4924C203.412 71.0689 203.412 70.7664 203.412 70.5244C203.412 67.4387 203.17 64.958 202.747 62.9613C202.324 60.9647 201.418 59.3916 200.088 58.121C198.396 56.5479 195.797 55.7008 192.172 55.5798C188.606 55.7008 185.947 56.5479 184.255 58.121C182.986 59.3916 182.14 61.0252 181.717 62.9613C181.294 64.958 181.052 67.4387 181.052 70.5244C181.052 70.8269 181.052 71.1294 181.052 71.4924V71.674C181.052 72.037 181.052 72.3395 181.052 72.642C181.052 75.7277 181.294 78.2084 181.717 80.205C182.14 82.2017 183.047 83.7748 184.255 85.0454C185.947 86.6185 188.546 87.405 192.172 87.4655C195.737 87.405 198.396 86.6185 200.088 85.0454C201.418 83.7748 202.264 82.1412 202.747 80.205C203.231 78.2689 203.412 75.7277 203.412 72.642Z" fill="black"/>
<path d="M278.226 51.1025C278.588 51.5866 278.649 52.0706 278.467 52.6151C275.687 60.8437 271.336 73.8521 265.354 91.6403C265.112 92.4269 264.568 92.7899 263.722 92.7899H259.613C258.827 92.7899 258.283 92.4269 257.981 91.6403L248.01 61.7513L238.039 91.6403C237.797 92.4269 237.253 92.7899 236.407 92.7899H232.298C231.512 92.7899 230.968 92.4269 230.666 91.6403C230.002 89.5227 227.826 83.0487 224.2 72.2185C220.574 61.3882 218.338 54.8538 217.613 52.6151C217.432 52.0706 217.492 51.5866 217.855 51.1025C218.157 50.6185 218.64 50.3765 219.245 50.3765H222.206C223.052 50.3765 223.596 50.7395 223.838 51.5261L234.353 82.9277C240.094 65.8655 243.599 55.3983 244.868 51.5261C245.109 50.7395 245.653 50.3765 246.499 50.3765H249.581C250.427 50.3765 250.971 50.7395 251.273 51.5261L261.667 82.9277C267.408 65.8655 270.913 55.3983 272.182 51.5261C272.485 50.7395 273.028 50.3765 273.814 50.3765H276.896C277.44 50.3765 277.863 50.6185 278.226 51.1025V51.1025Z" fill="black"/>
<path d="M321.555 69.4958L321.615 73.0051C321.615 73.4891 321.434 73.9126 321.071 74.2152C320.709 74.5177 320.346 74.6992 319.923 74.6992H292.608C292.91 79.2975 294.18 82.6252 296.476 84.6219C298.772 86.558 302.338 87.5261 307.172 87.5261C310.073 87.5261 312.732 86.679 315.149 84.9849C315.995 84.3194 316.72 84.3799 317.385 85.1664C317.748 85.5294 318.412 86.2555 319.379 87.3446C319.681 87.7076 319.802 88.1311 319.802 88.6757C319.742 89.1597 319.561 89.5832 319.138 89.8857C315.572 92.5479 311.584 93.8185 307.172 93.8185C300.767 93.8185 295.872 92.3664 292.427 89.4017C288.318 85.8925 286.203 79.9026 286.203 71.6135V71.553C286.203 63.3849 287.895 57.5765 291.218 54.1278C294.18 50.9815 298.349 49.4689 303.849 49.4689C309.348 49.4689 313.578 51.042 316.539 54.1278C319.621 57.2135 321.313 62.3563 321.555 69.4958V69.4958ZM292.487 69.4958H315.33C315.149 64.1715 314.061 60.4202 312.007 58.3631C310.315 56.4874 307.656 55.5799 303.909 55.5799C300.223 55.5799 297.443 56.4874 295.751 58.3631C293.696 60.4807 292.608 64.1715 292.487 69.4958V69.4958Z" fill="black"/>
<path d="M354.49 49.4689C354.913 49.5294 355.275 49.7109 355.577 50.0135C355.879 50.316 356 50.679 356 51.163V54.2488C356 54.8538 355.759 55.3378 355.336 55.6404C354.913 55.9429 354.369 56.0639 353.825 55.9429C353.281 55.7614 352.737 55.7009 352.133 55.7009C350.199 55.6403 348.326 56.3059 346.513 57.6975C344.7 59.0891 343.129 60.6017 341.859 62.2958C340.711 63.8084 339.865 65.442 339.261 67.2572V91.0958C339.261 91.5798 339.08 92.0034 338.717 92.3059C338.354 92.6084 337.992 92.7899 337.569 92.7899H334.668C334.185 92.7899 333.762 92.6084 333.46 92.3059C333.157 92.0034 332.976 91.5798 332.976 91.0958V52.0706C332.976 51.5866 333.157 51.163 333.46 50.8605C333.762 50.558 334.185 50.3765 334.668 50.3765H337.569C338.052 50.3765 338.475 50.558 338.777 50.8605C339.08 51.163 339.261 51.5866 339.261 52.0706V57.4555C339.442 57.0925 339.563 56.8504 339.684 56.7294C343.431 51.7076 348.023 49.2269 353.341 49.3479C353.825 49.3479 354.187 49.4084 354.49 49.4689V49.4689Z" fill="black"/>
</g>
<path d="M446.736 32.288C447.248 32.288 447.664 32.48 447.984 32.864C448.304 33.248 448.4 33.696 448.272 34.208C447.824 36.256 446.896 40.16 445.488 45.92C444.144 51.68 442.768 57.44 441.36 63.2C440.016 68.96 438.672 74.592 437.328 80.096C436.048 85.536 435.216 89.088 434.832 90.752C434.64 91.584 434.128 92 433.296 92H424.848C424.016 92 423.504 91.584 423.312 90.752L414.768 55.136C414.256 57.312 413.584 60.096 412.752 63.488C411.984 66.816 410.832 71.744 409.296 78.272C407.76 84.736 406.768 88.896 406.32 90.752C406.128 91.584 405.616 92 404.784 92H396.336C395.504 92 394.992 91.584 394.8 90.752C394.16 88.128 391.92 78.784 388.08 62.72C384.24 46.592 381.968 37.088 381.264 34.208C381.2 33.696 381.328 33.248 381.648 32.864C381.968 32.48 382.384 32.288 382.896 32.288H390.48C391.312 32.288 391.856 32.672 392.112 33.44L400.56 69.056C405.232 49.6 408.048 37.728 409.008 33.44C409.264 32.672 409.808 32.288 410.64 32.288H418.992C419.824 32.288 420.336 32.672 420.528 33.44L429.072 69.056C433.68 49.6 436.496 37.728 437.52 33.44C437.712 32.672 438.224 32.288 439.056 32.288H446.736ZM491.698 67.904V69.824V73.472C491.698 73.92 491.538 74.304 491.218 74.624C490.962 74.944 490.61 75.104 490.162 75.104H464.818C465.202 77.344 466.066 79.008 467.41 80.096C469.074 81.568 471.89 82.304 475.858 82.304C478.354 82.304 480.626 81.664 482.674 80.384C483.442 79.872 484.114 79.968 484.69 80.672C485.33 81.376 486.994 83.264 489.682 86.336C490.002 86.656 490.13 87.04 490.066 87.488C490.066 87.936 489.874 88.32 489.49 88.64C485.458 91.52 480.914 92.96 475.858 92.96C469.266 92.96 464.146 91.36 460.498 88.16C456.082 84.448 453.874 78.336 453.874 69.824V69.728C453.874 61.472 455.666 55.456 459.25 51.68C462.45 48.288 466.962 46.592 472.786 46.592C478.61 46.592 483.122 48.288 486.322 51.68C489.65 55.136 491.442 60.544 491.698 67.904ZM464.53 67.904H481.042C480.978 63.616 480.178 60.672 478.642 59.072C477.49 57.856 475.538 57.248 472.786 57.248C470.034 57.248 468.082 57.856 466.93 59.072C465.394 60.672 464.594 63.616 464.53 67.904ZM528.167 46.592C531.431 46.72 534.215 47.68 536.519 49.472C538.887 51.264 540.647 53.824 541.799 57.152C542.951 60.416 543.527 64.288 543.527 68.768C543.527 76.512 542.087 82.496 539.207 86.72C536.391 90.88 532.647 92.96 527.975 92.96C521.767 92.96 517.351 90.912 514.727 86.816V90.08C514.727 90.528 514.567 90.912 514.247 91.232C513.927 91.552 513.543 91.712 513.095 91.712H505.703C505.255 91.712 504.871 91.552 504.551 91.232C504.231 90.912 504.071 90.528 504.071 90.08V32.48C504.071 32.032 504.231 31.648 504.551 31.328C504.871 31.008 505.255 30.848 505.703 30.848H513.095C513.543 30.848 513.927 31.008 514.247 31.328C514.567 31.648 514.727 32 514.727 32.384V53.504C517.415 48.768 521.895 46.464 528.167 46.592ZM530.087 79.52C531.943 76.96 532.871 73.376 532.871 68.768C532.871 65.44 532.167 62.72 530.759 60.608C529.415 58.432 527.559 57.312 525.191 57.248C523.655 57.248 522.247 57.504 520.967 58.016C519.687 58.528 518.631 59.232 517.799 60.128C516.967 61.024 516.295 61.824 515.783 62.528C515.335 63.232 514.983 63.904 514.727 64.544V76.448C515.239 77.28 515.815 78.08 516.455 78.848C517.159 79.552 518.311 80.32 519.911 81.152C521.575 81.92 523.399 82.304 525.383 82.304C527.111 82.304 528.679 81.376 530.087 79.52Z" fill="black"/>
<path d="M73.4929 125.888V116.64C73.4929 115.488 73.0449 114.464 72.1809 113.696C71.4129 113.024 70.2289 112.544 68.6289 112.544C65.9089 112.544 63.5729 113.792 62.4529 115.584C62.3569 115.712 62.3249 115.904 62.3889 116.064C62.4529 116.256 62.5809 116.384 62.7409 116.448C63.0289 116.576 63.3809 116.736 63.6689 116.864C63.9569 116.992 64.2769 116.896 64.4369 116.64C65.2049 115.488 66.8049 114.784 68.6289 114.784C70.3569 114.784 71.2529 115.52 71.2529 116.64V118.464C71.2209 118.464 71.1889 118.432 71.1569 118.432C69.3969 118.432 67.1889 118.272 64.7249 119.168C62.7089 119.936 61.3009 121.312 61.3009 123.808C61.3009 125.408 61.8769 126.56 62.7409 127.296C63.5729 128 64.7249 128.384 66.0049 128.384C68.1489 128.352 69.8449 127.296 71.2529 125.568C71.2529 125.568 71.2529 125.632 71.2529 125.76C71.2529 126.368 71.3169 126.976 71.4129 127.584C71.4769 127.84 71.7009 128 71.9569 128C72.3089 128 72.8209 128 73.1729 128C73.3329 128 73.4609 127.968 73.5249 127.84C73.6209 127.744 73.6529 127.616 73.6209 127.456C73.5249 126.944 73.4929 126.4 73.4929 125.888ZM71.2529 123.456C70.0369 125.088 67.8289 126.144 66.0049 126.144C65.3009 126.144 64.6289 125.984 64.1809 125.6C63.7329 125.216 63.5089 124.608 63.5089 123.808C63.5089 121.984 64.9809 120.704 66.5809 120.352C68.1489 120.032 69.9089 120.032 71.2529 120.064V123.456ZM93.6686 112.544C90.6286 112.48 88.7406 114.176 87.6526 115.648C87.6526 115.648 87.6526 109.184 87.6526 107.136C87.6526 106.816 87.3966 106.528 87.0446 106.528C86.7246 106.528 86.3406 106.528 86.0206 106.528C85.8606 106.528 85.7326 106.592 85.6046 106.72C85.4766 106.816 85.4446 106.976 85.4446 107.136C85.4446 110.24 85.4446 124.288 85.4446 127.424C85.4446 127.584 85.5086 127.712 85.6046 127.84C85.7326 127.968 85.8606 128 86.0206 128C86.3406 128 86.7246 128 87.0446 128C87.2046 128 87.3646 127.936 87.4926 127.84C87.5886 127.712 87.6526 127.584 87.6526 127.424V125.664C88.7086 126.912 90.6286 128.384 93.6366 128.384C96.6446 128.384 98.6286 125.472 98.6286 120.064C98.6286 115.52 97.0286 112.64 93.6686 112.544ZM93.0286 126.144C89.8606 126.144 88.0046 123.872 87.6526 123.232V118.304C87.9406 117.6 89.7326 114.72 92.9966 114.784C95.3006 114.848 96.4206 116.992 96.4206 120.064C96.4206 123.84 95.1406 126.144 93.0286 126.144ZM114.757 119.744C114.661 117.472 114.181 115.488 112.965 114.208C112.005 113.216 110.597 112.544 108.453 112.544C106.341 112.544 104.901 113.216 103.941 114.208C102.597 115.616 102.181 117.856 102.181 120.416V120.448C102.181 123.072 102.693 125.344 104.357 126.784C105.477 127.744 107.141 128.352 109.605 128.352C111.205 128.352 112.677 127.84 113.893 126.944C114.021 126.848 114.085 126.688 114.117 126.528C114.117 126.368 114.085 126.208 113.957 126.08C113.765 125.824 113.477 125.536 113.285 125.312C113.061 125.056 112.709 125.024 112.485 125.216C111.653 125.792 110.661 126.144 109.605 126.144C107.845 126.144 106.629 125.792 105.797 125.088C104.837 124.256 104.517 123.008 104.421 121.568C104.421 121.568 111.941 121.568 114.149 121.568C114.309 121.568 114.469 121.504 114.597 121.408C114.693 121.28 114.757 121.12 114.757 120.96V119.744ZM104.389 119.744C104.453 118.112 104.677 116.672 105.573 115.744C106.181 115.104 107.109 114.784 108.453 114.784C109.829 114.784 110.757 115.104 111.365 115.744C112.229 116.672 112.485 118.112 112.517 119.744H104.389ZM125.959 126.912C125.831 126.624 125.671 126.272 125.543 125.984C125.415 125.696 125.063 125.536 124.775 125.664C124.039 125.984 123.463 126.176 122.983 126.144C122.471 126.08 122.087 125.952 121.831 125.696C121.639 125.44 121.543 125.12 121.543 124.736V114.912C121.543 114.912 123.975 114.912 125.159 114.912C125.319 114.912 125.479 114.848 125.575 114.72C125.703 114.624 125.767 114.464 125.767 114.304C125.767 113.984 125.767 113.6 125.767 113.28C125.767 113.12 125.703 112.96 125.575 112.864C125.479 112.736 125.319 112.672 125.159 112.672H121.543C121.543 112.672 121.543 109.984 121.543 108.768C121.543 108.608 121.479 108.448 121.351 108.32C121.255 108.224 121.095 108.16 120.935 108.16C120.615 108.16 120.231 108.16 119.911 108.16C119.751 108.16 119.623 108.224 119.495 108.32C119.367 108.448 119.303 108.608 119.303 108.768V112.672C119.303 112.672 118.663 112.672 118.119 112.672C117.799 112.672 117.543 112.96 117.543 113.28C117.543 113.6 117.543 113.984 117.543 114.304C117.543 114.624 117.799 114.912 118.119 114.912H119.303V124.736C119.303 125.728 119.623 126.56 120.199 127.2C120.775 127.808 121.607 128.256 122.759 128.352C123.495 128.416 124.455 128.192 125.639 127.712C125.799 127.648 125.895 127.52 125.959 127.392C126.023 127.232 126.023 127.04 125.959 126.912ZM136.803 126.912C136.675 126.624 136.515 126.272 136.387 125.984C136.259 125.696 135.907 125.536 135.619 125.664C134.883 125.984 134.307 126.176 133.827 126.144C133.315 126.08 132.931 125.952 132.675 125.696C132.483 125.44 132.387 125.12 132.387 124.736V114.912C132.387 114.912 134.819 114.912 136.003 114.912C136.163 114.912 136.323 114.848 136.419 114.72C136.547 114.624 136.611 114.464 136.611 114.304C136.611 113.984 136.611 113.6 136.611 113.28C136.611 113.12 136.547 112.96 136.419 112.864C136.323 112.736 136.163 112.672 136.003 112.672H132.387C132.387 112.672 132.387 109.984 132.387 108.768C132.387 108.608 132.323 108.448 132.195 108.32C132.099 108.224 131.939 108.16 131.779 108.16C131.459 108.16 131.075 108.16 130.755 108.16C130.595 108.16 130.467 108.224 130.339 108.32C130.211 108.448 130.147 108.608 130.147 108.768V112.672C130.147 112.672 129.507 112.672 128.963 112.672C128.643 112.672 128.387 112.96 128.387 113.28C128.387 113.6 128.387 113.984 128.387 114.304C128.387 114.624 128.643 114.912 128.963 114.912H130.147V124.736C130.147 125.728 130.467 126.56 131.043 127.2C131.619 127.808 132.451 128.256 133.603 128.352C134.339 128.416 135.299 128.192 136.483 127.712C136.643 127.648 136.739 127.52 136.803 127.392C136.867 127.232 136.867 127.04 136.803 126.912ZM152.07 119.744C151.974 117.472 151.494 115.488 150.278 114.208C149.318 113.216 147.91 112.544 145.766 112.544C143.654 112.544 142.214 113.216 141.254 114.208C139.91 115.616 139.494 117.856 139.494 120.416V120.448C139.494 123.072 140.006 125.344 141.67 126.784C142.79 127.744 144.454 128.352 146.918 128.352C148.518 128.352 149.99 127.84 151.206 126.944C151.334 126.848 151.398 126.688 151.43 126.528C151.43 126.368 151.398 126.208 151.27 126.08C151.078 125.824 150.79 125.536 150.598 125.312C150.374 125.056 150.022 125.024 149.798 125.216C148.966 125.792 147.974 126.144 146.918 126.144C145.158 126.144 143.942 125.792 143.11 125.088C142.15 124.256 141.83 123.008 141.734 121.568C141.734 121.568 149.254 121.568 151.462 121.568C151.622 121.568 151.782 121.504 151.91 121.408C152.006 121.28 152.07 121.12 152.07 120.96V119.744ZM141.702 119.744C141.766 118.112 141.99 116.672 142.886 115.744C143.494 115.104 144.422 114.784 145.766 114.784C147.142 114.784 148.07 115.104 148.678 115.744C149.542 116.672 149.798 118.112 149.83 119.744H141.702ZM163.811 112.576C163.683 112.576 163.555 112.576 163.427 112.544C160.995 112.48 159.555 113.824 158.563 115.168C158.499 115.264 158.435 115.36 158.371 115.424C158.371 115.424 158.371 114.24 158.371 113.504C158.371 113.344 158.307 113.184 158.211 113.088C158.083 112.96 157.923 112.896 157.763 112.896C157.443 112.896 157.059 112.896 156.739 112.896C156.419 112.896 156.163 113.184 156.163 113.504C156.163 116.256 156.163 127.392 156.163 127.392C156.163 127.552 156.227 127.712 156.323 127.84C156.451 127.936 156.579 128 156.771 128C157.059 128 157.443 128 157.763 128C157.923 128 158.083 127.936 158.211 127.84C158.307 127.712 158.371 127.584 158.371 127.392V118.88C158.499 118.592 158.787 117.856 159.331 117.12C159.971 116.256 161.411 114.752 162.947 114.784C163.171 114.784 163.363 114.816 163.555 114.88C163.747 114.944 163.939 114.912 164.099 114.784C164.259 114.656 164.355 114.496 164.355 114.304C164.355 113.92 164.355 113.504 164.355 113.184C164.323 112.864 164.099 112.608 163.811 112.576ZM183.556 121.344C182.916 120.832 182.052 120.48 181.124 120.128C179.94 119.712 178.628 119.36 177.604 118.784C176.9 118.4 176.324 117.92 176.324 117.056C176.324 115.712 177.796 114.784 179.492 114.784C180.868 114.784 182.34 115.552 183.044 115.968C183.3 116.128 183.62 116.096 183.812 115.872C184.036 115.648 184.324 115.328 184.548 115.072C184.676 114.944 184.708 114.784 184.708 114.592C184.676 114.432 184.612 114.272 184.484 114.176C182.884 113.024 180.804 112.544 179.492 112.544C176.452 112.544 174.116 114.656 174.116 117.056C174.116 118.56 174.82 119.584 175.908 120.352C176.804 120.992 177.956 121.408 179.14 121.824C180.132 122.144 181.124 122.432 181.86 122.88C182.276 123.136 182.66 123.392 182.66 123.872C182.66 125.216 181.156 126.144 179.492 126.144C178.532 126.144 177.06 125.824 175.94 125.024C175.684 124.832 175.332 124.864 175.108 125.088C174.916 125.312 174.628 125.632 174.436 125.856C174.308 125.984 174.244 126.144 174.276 126.336C174.276 126.496 174.372 126.656 174.5 126.752C176.068 127.872 178.18 128.384 179.492 128.384C182.532 128.384 184.868 126.272 184.868 123.872C184.868 122.784 184.388 121.984 183.556 121.344ZM200.757 119.744C200.661 117.472 200.181 115.488 198.965 114.208C198.005 113.216 196.597 112.544 194.453 112.544C192.341 112.544 190.901 113.216 189.941 114.208C188.597 115.616 188.181 117.856 188.181 120.416V120.448C188.181 123.072 188.693 125.344 190.357 126.784C191.477 127.744 193.141 128.352 195.605 128.352C197.205 128.352 198.677 127.84 199.893 126.944C200.021 126.848 200.085 126.688 200.117 126.528C200.117 126.368 200.085 126.208 199.957 126.08C199.765 125.824 199.477 125.536 199.285 125.312C199.061 125.056 198.709 125.024 198.485 125.216C197.653 125.792 196.661 126.144 195.605 126.144C193.845 126.144 192.629 125.792 191.797 125.088C190.837 124.256 190.517 123.008 190.421 121.568C190.421 121.568 197.941 121.568 200.149 121.568C200.309 121.568 200.469 121.504 200.597 121.408C200.693 121.28 200.757 121.12 200.757 120.96V119.744ZM190.389 119.744C190.453 118.112 190.677 116.672 191.573 115.744C192.181 115.104 193.109 114.784 194.453 114.784C195.829 114.784 196.757 115.104 197.365 115.744C198.229 116.672 198.485 118.112 198.517 119.744H190.389ZM216.274 125.888V116.64C216.274 115.488 215.826 114.464 214.962 113.696C214.194 113.024 213.01 112.544 211.41 112.544C208.69 112.544 206.354 113.792 205.234 115.584C205.138 115.712 205.106 115.904 205.17 116.064C205.234 116.256 205.362 116.384 205.522 116.448C205.81 116.576 206.162 116.736 206.45 116.864C206.738 116.992 207.058 116.896 207.218 116.64C207.986 115.488 209.586 114.784 211.41 114.784C213.138 114.784 214.034 115.52 214.034 116.64V118.464C214.002 118.464 213.97 118.432 213.938 118.432C212.178 118.432 209.97 118.272 207.506 119.168C205.49 119.936 204.082 121.312 204.082 123.808C204.082 125.408 204.658 126.56 205.522 127.296C206.354 128 207.506 128.384 208.786 128.384C210.93 128.352 212.626 127.296 214.034 125.568C214.034 125.568 214.034 125.632 214.034 125.76C214.034 126.368 214.098 126.976 214.194 127.584C214.258 127.84 214.482 128 214.738 128C215.09 128 215.602 128 215.954 128C216.114 128 216.242 127.968 216.306 127.84C216.402 127.744 216.434 127.616 216.402 127.456C216.306 126.944 216.274 126.4 216.274 125.888ZM214.034 123.456C212.818 125.088 210.61 126.144 208.786 126.144C208.082 126.144 207.41 125.984 206.962 125.6C206.514 125.216 206.29 124.608 206.29 123.808C206.29 121.984 207.762 120.704 209.362 120.352C210.93 120.032 212.69 120.032 214.034 120.064V123.456ZM228.467 112.576C228.339 112.576 228.211 112.576 228.083 112.544C225.651 112.48 224.211 113.824 223.219 115.168C223.155 115.264 223.091 115.36 223.027 115.424C223.027 115.424 223.027 114.24 223.027 113.504C223.027 113.344 222.963 113.184 222.867 113.088C222.739 112.96 222.579 112.896 222.419 112.896C222.099 112.896 221.715 112.896 221.395 112.896C221.075 112.896 220.819 113.184 220.819 113.504C220.819 116.256 220.819 127.392 220.819 127.392C220.819 127.552 220.883 127.712 220.979 127.84C221.107 127.936 221.235 128 221.427 128C221.715 128 222.099 128 222.419 128C222.579 128 222.739 127.936 222.867 127.84C222.963 127.712 223.027 127.584 223.027 127.392V118.88C223.155 118.592 223.443 117.856 223.987 117.12C224.627 116.256 226.067 114.752 227.603 114.784C227.827 114.784 228.019 114.816 228.211 114.88C228.403 114.944 228.595 114.912 228.755 114.784C228.915 114.656 229.011 114.496 229.011 114.304C229.011 113.92 229.011 113.504 229.011 113.184C228.979 112.864 228.755 112.608 228.467 112.576ZM242.738 126.08C242.546 125.824 242.258 125.536 242.066 125.312C241.842 125.088 241.49 125.024 241.266 125.216C240.434 125.792 239.442 126.144 238.418 126.144C236.626 126.144 235.41 125.792 234.578 125.088C233.394 124.064 233.17 122.4 233.17 120.544V120.448C233.17 118.56 233.394 116.864 234.578 115.84C235.41 115.136 236.626 114.784 238.418 114.784C239.442 114.784 240.434 115.136 241.266 115.712C241.49 115.904 241.842 115.872 242.066 115.616C242.258 115.392 242.546 115.104 242.738 114.848C242.866 114.72 242.898 114.56 242.898 114.4C242.866 114.208 242.802 114.08 242.642 113.984C241.458 113.088 239.986 112.544 238.418 112.544C235.922 112.544 234.258 113.184 233.138 114.144C231.474 115.552 230.962 117.824 230.962 120.416V120.448C230.962 123.072 231.474 125.344 233.138 126.784C234.258 127.744 235.922 128.352 238.418 128.352C239.986 128.352 241.458 127.84 242.674 126.944C242.802 126.848 242.866 126.688 242.898 126.528C242.898 126.368 242.866 126.208 242.738 126.08ZM253.708 112.544C251.276 112.48 249.868 113.824 248.844 115.168C248.78 115.264 248.716 115.36 248.652 115.424C248.652 115.424 248.652 109.152 248.652 107.136C248.652 106.816 248.396 106.528 248.044 106.528C247.724 106.528 247.34 106.528 247.052 106.528C246.86 106.528 246.732 106.592 246.604 106.72C246.508 106.816 246.444 106.976 246.444 107.136C246.444 110.24 246.444 124.288 246.444 127.424C246.444 127.584 246.508 127.712 246.604 127.84C246.732 127.968 246.86 128 247.052 128C247.34 128 247.724 128 248.044 128C248.204 128 248.364 127.936 248.492 127.84C248.588 127.712 248.652 127.584 248.652 127.424V118.272C248.78 117.984 249.068 117.248 249.612 116.512C250.252 115.648 251.692 114.752 253.228 114.784C254.124 114.816 254.924 115.264 255.404 116.096C256.044 117.088 256.044 118.432 256.044 120.064C256.044 120.064 256.044 125.536 256.044 127.424C256.044 127.744 256.3 128 256.652 128C256.972 128 257.356 128 257.644 128C257.996 128 258.252 127.744 258.252 127.424V120.064C258.252 115.488 256.652 112.64 253.708 112.544ZM282.007 119.744C281.911 117.472 281.431 115.488 280.215 114.208C279.255 113.216 277.847 112.544 275.703 112.544C273.591 112.544 272.151 113.216 271.191 114.208C269.847 115.616 269.431 117.856 269.431 120.416V120.448C269.431 123.072 269.943 125.344 271.607 126.784C272.727 127.744 274.391 128.352 276.855 128.352C278.455 128.352 279.927 127.84 281.143 126.944C281.271 126.848 281.335 126.688 281.367 126.528C281.367 126.368 281.335 126.208 281.207 126.08C281.015 125.824 280.727 125.536 280.535 125.312C280.311 125.056 279.959 125.024 279.735 125.216C278.903 125.792 277.911 126.144 276.855 126.144C275.095 126.144 273.879 125.792 273.047 125.088C272.087 124.256 271.767 123.008 271.671 121.568C271.671 121.568 279.191 121.568 281.399 121.568C281.559 121.568 281.719 121.504 281.847 121.408C281.943 121.28 282.007 121.12 282.007 120.96V119.744ZM271.639 119.744C271.703 118.112 271.927 116.672 272.823 115.744C273.431 115.104 274.359 114.784 275.703 114.784C277.079 114.784 278.007 115.104 278.615 115.744C279.479 116.672 279.735 118.112 279.767 119.744H271.639ZM293.364 112.544C290.932 112.48 289.492 113.824 288.5 115.168C288.436 115.264 288.372 115.36 288.308 115.424C288.308 115.424 288.308 114.24 288.308 113.504C288.308 113.344 288.244 113.184 288.148 113.088C288.02 112.96 287.86 112.896 287.7 112.896C287.38 112.896 286.996 112.896 286.676 112.896C286.356 112.896 286.1 113.184 286.1 113.504C286.1 116.256 286.1 127.424 286.1 127.424C286.1 127.584 286.164 127.712 286.26 127.84C286.388 127.968 286.516 128 286.708 128C286.996 128 287.38 128 287.7 128C287.86 128 288.02 127.936 288.148 127.84C288.244 127.712 288.308 127.584 288.308 127.424V118.272C288.436 117.984 288.724 117.248 289.268 116.512C289.908 115.648 291.348 114.752 292.884 114.784C293.78 114.816 294.58 115.264 295.06 116.096C295.7 117.088 295.7 118.432 295.7 120.064C295.7 120.064 295.7 125.536 295.7 127.424C295.7 127.744 295.956 128 296.308 128C296.628 128 297.012 128 297.3 128C297.652 128 297.908 127.744 297.908 127.424V120.064C297.908 115.488 296.308 112.64 293.364 112.544ZM314.256 112.96C313.904 112.96 313.552 112.96 313.168 112.96C312.816 112.96 312.592 113.216 312.592 113.568C312.592 114.048 312.592 114.528 312.592 114.528C311.504 113.44 309.84 112.608 307.6 112.608C304.24 112.736 301.648 115.584 301.648 120.128C301.648 125.472 304.624 128.448 307.696 128.448C309.968 128.448 311.504 127.616 312.72 126.784V129.184C312.72 129.76 312.336 130.24 311.76 130.592C310.928 131.072 309.744 131.424 308.432 131.424C305.904 131.424 304.72 130.24 304.24 129.536C303.888 129.28 303.536 129.184 303.312 129.28C303.056 129.408 302.704 129.536 302.352 129.76C302.224 129.888 302.096 130.016 302 130.112C302 130.24 302 130.496 302.096 130.592C302.832 131.68 304.624 133.568 308.304 133.568C310.672 133.568 312.464 132.864 313.552 131.904C314.384 131.072 314.864 130.112 314.864 129.056V113.568C314.864 113.216 314.608 112.96 314.256 112.96ZM312.592 123.328C312.24 123.936 310.8 126.208 307.6 126.208C305.456 126.208 303.76 123.936 303.76 120.128C303.76 117.024 305.328 114.88 307.6 114.88C310.928 114.752 312.24 117.728 312.464 118.464V123.328H312.592ZM321.075 112.864C320.755 112.864 320.371 112.864 320.051 112.864C319.731 112.864 319.475 113.152 319.475 113.472C319.475 115.904 319.475 124.928 319.475 127.392C319.475 127.712 319.731 127.968 320.051 127.968C320.371 127.968 320.755 127.968 321.075 127.968C321.427 127.968 321.683 127.712 321.683 127.392C321.683 124.928 321.683 115.904 321.683 113.472C321.683 113.152 321.427 112.864 321.075 112.864ZM321.075 107.2H320.051C319.731 107.2 319.475 107.488 319.475 107.808V109.44C319.475 109.792 319.731 110.048 320.051 110.048H321.075C321.427 110.048 321.683 109.792 321.683 109.44V107.808C321.683 107.488 321.427 107.2 321.075 107.2ZM333.52 112.544C331.088 112.48 329.648 113.824 328.656 115.168C328.592 115.264 328.528 115.36 328.464 115.424C328.464 115.424 328.464 114.24 328.464 113.504C328.464 113.344 328.4 113.184 328.304 113.088C328.176 112.96 328.016 112.896 327.856 112.896C327.536 112.896 327.152 112.896 326.832 112.896C326.512 112.896 326.256 113.184 326.256 113.504C326.256 116.256 326.256 127.424 326.256 127.424C326.256 127.584 326.32 127.712 326.416 127.84C326.544 127.968 326.672 128 326.864 128C327.152 128 327.536 128 327.856 128C328.016 128 328.176 127.936 328.304 127.84C328.4 127.712 328.464 127.584 328.464 127.424V118.272C328.592 117.984 328.88 117.248 329.424 116.512C330.064 115.648 331.504 114.752 333.04 114.784C333.936 114.816 334.736 115.264 335.216 116.096C335.856 117.088 335.856 118.432 335.856 120.064C335.856 120.064 335.856 125.536 335.856 127.424C335.856 127.744 336.112 128 336.464 128C336.784 128 337.168 128 337.456 128C337.808 128 338.064 127.744 338.064 127.424V120.064C338.064 115.488 336.464 112.64 333.52 112.544ZM354.445 119.744C354.349 117.472 353.869 115.488 352.653 114.208C351.693 113.216 350.285 112.544 348.141 112.544C346.029 112.544 344.589 113.216 343.629 114.208C342.285 115.616 341.869 117.856 341.869 120.416V120.448C341.869 123.072 342.381 125.344 344.045 126.784C345.165 127.744 346.829 128.352 349.293 128.352C350.893 128.352 352.365 127.84 353.581 126.944C353.709 126.848 353.773 126.688 353.805 126.528C353.805 126.368 353.773 126.208 353.645 126.08C353.453 125.824 353.165 125.536 352.973 125.312C352.749 125.056 352.397 125.024 352.173 125.216C351.341 125.792 350.349 126.144 349.293 126.144C347.533 126.144 346.317 125.792 345.485 125.088C344.525 124.256 344.205 123.008 344.109 121.568C344.109 121.568 351.629 121.568 353.837 121.568C353.997 121.568 354.157 121.504 354.285 121.408C354.381 121.28 354.445 121.12 354.445 120.96V119.744ZM344.077 119.744C344.141 118.112 344.365 116.672 345.261 115.744C345.869 115.104 346.797 114.784 348.141 114.784C349.517 114.784 350.445 115.104 351.053 115.744C351.917 116.672 352.173 118.112 352.205 119.744H344.077ZM374.105 107.136C374.041 107.008 373.913 106.88 373.753 106.816C372.377 106.336 371.321 106.112 370.489 106.176C369.209 106.272 368.281 106.688 367.641 107.264C366.969 107.904 366.585 108.768 366.585 109.824V112.672C366.585 112.672 365.945 112.672 365.401 112.672C365.081 112.672 364.825 112.96 364.825 113.28C364.825 113.6 364.825 113.984 364.825 114.304C364.825 114.624 365.081 114.912 365.401 114.912H366.585C366.585 114.912 366.585 124.832 366.585 127.392C366.585 127.744 366.873 128 367.193 128C367.513 128 367.897 128 368.217 128C368.537 128 368.825 127.744 368.825 127.392V114.912C368.825 114.912 371.257 114.912 372.441 114.912C372.601 114.912 372.729 114.848 372.857 114.72C372.985 114.624 373.049 114.464 373.049 114.304C373.049 113.984 373.049 113.6 373.049 113.28C373.049 113.12 372.985 112.96 372.857 112.864C372.729 112.736 372.601 112.672 372.441 112.672H368.825V109.824C368.825 108.96 369.497 108.512 370.649 108.416C371.289 108.352 372.025 108.576 372.985 108.928C373.305 109.024 373.657 108.864 373.753 108.576C373.881 108.288 374.009 107.904 374.137 107.616C374.169 107.456 374.169 107.296 374.105 107.136ZM387.224 120.064C387.224 117.408 386.712 115.328 385.336 114.048C384.408 113.152 383.032 112.608 381.048 112.544H380.984C379 112.608 377.624 113.152 376.664 114.048C375.32 115.328 374.808 117.408 374.808 120.064C374.808 120.192 374.808 120.32 374.808 120.448C374.808 120.576 374.808 120.704 374.808 120.864C374.808 123.52 375.32 125.6 376.664 126.88C377.624 127.776 379 128.32 380.984 128.384H381.048C383.032 128.32 384.408 127.776 385.336 126.88C386.712 125.6 387.224 123.52 387.224 120.864C387.224 120.704 387.224 120.576 387.224 120.448C387.224 120.32 387.224 120.192 387.224 120.064ZM384.984 120.864C384.984 122.784 384.792 124.32 383.832 125.248C383.192 125.824 382.296 126.112 381.016 126.144C379.704 126.112 378.808 125.824 378.2 125.248C377.208 124.32 377.016 122.784 377.016 120.864C377.016 120.736 377.016 120.608 377.016 120.512V120.416C377.016 120.32 377.016 120.192 377.016 120.064C377.016 118.144 377.208 116.608 378.2 115.68C378.808 115.104 379.736 114.816 381.016 114.784C382.296 114.816 383.192 115.104 383.832 115.68C384.792 116.608 384.984 118.144 384.984 120.064C384.984 120.192 384.984 120.32 384.984 120.416V120.512C384.984 120.608 384.984 120.736 384.984 120.864ZM398.998 112.576C398.87 112.576 398.742 112.576 398.614 112.544C396.182 112.48 394.742 113.824 393.75 115.168C393.686 115.264 393.622 115.36 393.558 115.424C393.558 115.424 393.558 114.24 393.558 113.504C393.558 113.344 393.494 113.184 393.398 113.088C393.27 112.96 393.11 112.896 392.95 112.896C392.63 112.896 392.246 112.896 391.926 112.896C391.606 112.896 391.35 113.184 391.35 113.504C391.35 116.256 391.35 127.392 391.35 127.392C391.35 127.552 391.414 127.712 391.51 127.84C391.638 127.936 391.766 128 391.958 128C392.246 128 392.63 128 392.95 128C393.11 128 393.27 127.936 393.398 127.84C393.494 127.712 393.558 127.584 393.558 127.392V118.88C393.686 118.592 393.974 117.856 394.518 117.12C395.158 116.256 396.598 114.752 398.134 114.784C398.358 114.784 398.55 114.816 398.742 114.88C398.934 114.944 399.126 114.912 399.286 114.784C399.446 114.656 399.542 114.496 399.542 114.304C399.542 113.92 399.542 113.504 399.542 113.184C399.51 112.864 399.286 112.608 398.998 112.576ZM422.007 119.744C421.911 117.472 421.431 115.488 420.215 114.208C419.255 113.216 417.847 112.544 415.703 112.544C413.591 112.544 412.151 113.216 411.191 114.208C409.847 115.616 409.431 117.856 409.431 120.416V120.448C409.431 123.072 409.943 125.344 411.607 126.784C412.727 127.744 414.391 128.352 416.855 128.352C418.455 128.352 419.927 127.84 421.143 126.944C421.271 126.848 421.335 126.688 421.367 126.528C421.367 126.368 421.335 126.208 421.207 126.08C421.015 125.824 420.727 125.536 420.535 125.312C420.311 125.056 419.959 125.024 419.735 125.216C418.903 125.792 417.911 126.144 416.855 126.144C415.095 126.144 413.879 125.792 413.047 125.088C412.087 124.256 411.767 123.008 411.671 121.568C411.671 121.568 419.191 121.568 421.399 121.568C421.559 121.568 421.719 121.504 421.847 121.408C421.943 121.28 422.007 121.12 422.007 120.96V119.744ZM411.639 119.744C411.703 118.112 411.927 116.672 412.823 115.744C413.431 115.104 414.359 114.784 415.703 114.784C417.079 114.784 418.007 115.104 418.615 115.744C419.479 116.672 419.735 118.112 419.767 119.744H411.639ZM436.66 113.152C436.564 112.992 436.372 112.896 436.18 112.896C435.828 112.896 435.412 112.896 435.124 112.896C434.836 112.896 434.612 113.088 434.548 113.312C433.844 115.392 430.804 124.512 430.804 124.512C430.804 124.512 427.732 115.392 427.06 113.312C426.964 113.088 426.74 112.896 426.484 112.896C426.164 112.896 425.78 112.896 425.396 112.896C425.204 112.896 425.044 112.992 424.916 113.152C424.82 113.312 424.788 113.536 424.852 113.696C425.748 116.48 428.788 125.536 429.492 127.584C429.556 127.84 429.812 128 430.068 128C430.484 128 431.124 128 431.54 128C431.796 128 432.02 127.84 432.116 127.584C432.788 125.536 435.828 116.48 436.756 113.696C436.82 113.536 436.788 113.312 436.66 113.152ZM452.101 119.744C452.005 117.472 451.525 115.488 450.309 114.208C449.349 113.216 447.941 112.544 445.797 112.544C443.685 112.544 442.245 113.216 441.285 114.208C439.941 115.616 439.525 117.856 439.525 120.416V120.448C439.525 123.072 440.037 125.344 441.701 126.784C442.821 127.744 444.485 128.352 446.949 128.352C448.549 128.352 450.021 127.84 451.237 126.944C451.365 126.848 451.429 126.688 451.461 126.528C451.461 126.368 451.429 126.208 451.301 126.08C451.109 125.824 450.821 125.536 450.629 125.312C450.405 125.056 450.053 125.024 449.829 125.216C448.997 125.792 448.005 126.144 446.949 126.144C445.189 126.144 443.973 125.792 443.141 125.088C442.181 124.256 441.861 123.008 441.765 121.568C441.765 121.568 449.285 121.568 451.493 121.568C451.653 121.568 451.813 121.504 451.941 121.408C452.037 121.28 452.101 121.12 452.101 120.96V119.744ZM441.733 119.744C441.797 118.112 442.021 116.672 442.917 115.744C443.525 115.104 444.453 114.784 445.797 114.784C447.173 114.784 448.101 115.104 448.709 115.744C449.573 116.672 449.829 118.112 449.861 119.744H441.733ZM463.842 112.576C463.714 112.576 463.586 112.576 463.458 112.544C461.026 112.48 459.586 113.824 458.594 115.168C458.53 115.264 458.466 115.36 458.402 115.424C458.402 115.424 458.402 114.24 458.402 113.504C458.402 113.344 458.338 113.184 458.242 113.088C458.114 112.96 457.954 112.896 457.794 112.896C457.474 112.896 457.09 112.896 456.77 112.896C456.45 112.896 456.194 113.184 456.194 113.504C456.194 116.256 456.194 127.392 456.194 127.392C456.194 127.552 456.258 127.712 456.354 127.84C456.482 127.936 456.61 128 456.802 128C457.09 128 457.474 128 457.794 128C457.954 128 458.114 127.936 458.242 127.84C458.338 127.712 458.402 127.584 458.402 127.392V118.88C458.53 118.592 458.818 117.856 459.362 117.12C460.002 116.256 461.442 114.752 462.978 114.784C463.202 114.784 463.394 114.816 463.586 114.88C463.778 114.944 463.97 114.912 464.13 114.784C464.29 114.656 464.386 114.496 464.386 114.304C464.386 113.92 464.386 113.504 464.386 113.184C464.354 112.864 464.13 112.608 463.842 112.576ZM478.708 113.12C478.58 113.024 478.356 112.896 478.228 112.896C477.748 112.896 477.396 112.896 477.044 112.896C476.788 112.896 476.564 113.024 476.564 113.248C475.732 115.264 472.404 124.096 472.404 124.096C472.404 124.096 469.076 115.264 468.34 113.248C468.212 113.024 467.988 112.896 467.764 112.896H466.676C466.452 112.896 466.324 113.024 466.196 113.12C466.1 113.376 466.1 113.504 466.1 113.728C467.284 116.832 471.22 127.2 471.22 127.2L470.26 129.824C470.132 130.272 469.78 130.656 469.428 131.008C469.076 131.232 468.692 131.36 468.212 131.36C467.86 131.36 467.508 131.232 467.156 131.232C467.028 131.232 466.804 131.232 466.676 131.36C466.548 131.488 466.452 131.584 466.452 131.712C466.452 132.064 466.324 132.416 466.324 132.672C466.324 132.8 466.324 133.024 466.452 133.152C466.548 133.248 466.676 133.376 466.804 133.376C467.156 133.376 467.508 133.504 467.86 133.504C468.82 133.632 469.908 133.376 470.612 132.8C471.316 132.192 471.924 131.488 472.276 130.528C472.276 130.528 477.268 117.184 478.58 113.6C478.836 113.504 478.836 113.376 478.708 113.12ZM493.974 120.064C493.974 117.408 493.462 115.328 492.086 114.048C491.158 113.152 489.782 112.608 487.798 112.544H487.734C485.75 112.608 484.374 113.152 483.414 114.048C482.07 115.328 481.558 117.408 481.558 120.064C481.558 120.192 481.558 120.32 481.558 120.448C481.558 120.576 481.558 120.704 481.558 120.864C481.558 123.52 482.07 125.6 483.414 126.88C484.374 127.776 485.75 128.32 487.734 128.384H487.798C489.782 128.32 491.158 127.776 492.086 126.88C493.462 125.6 493.974 123.52 493.974 120.864C493.974 120.704 493.974 120.576 493.974 120.448C493.974 120.32 493.974 120.192 493.974 120.064ZM491.734 120.864C491.734 122.784 491.542 124.32 490.582 125.248C489.942 125.824 489.046 126.112 487.766 126.144C486.454 126.112 485.558 125.824 484.95 125.248C483.958 124.32 483.766 122.784 483.766 120.864C483.766 120.736 483.766 120.608 483.766 120.512V120.416C483.766 120.32 483.766 120.192 483.766 120.064C483.766 118.144 483.958 116.608 484.95 115.68C485.558 115.104 486.486 114.816 487.766 114.784C489.046 114.816 489.942 115.104 490.582 115.68C491.542 116.608 491.734 118.144 491.734 120.064C491.734 120.192 491.734 120.32 491.734 120.416V120.512C491.734 120.608 491.734 120.736 491.734 120.864ZM505.364 112.544C502.932 112.48 501.492 113.824 500.5 115.168C500.436 115.264 500.372 115.36 500.308 115.424C500.308 115.424 500.308 114.24 500.308 113.504C500.308 113.344 500.244 113.184 500.148 113.088C500.02 112.96 499.86 112.896 499.7 112.896C499.38 112.896 498.996 112.896 498.676 112.896C498.356 112.896 498.1 113.184 498.1 113.504C498.1 116.256 498.1 127.424 498.1 127.424C498.1 127.584 498.164 127.712 498.26 127.84C498.388 127.968 498.516 128 498.708 128C498.996 128 499.38 128 499.7 128C499.86 128 500.02 127.936 500.148 127.84C500.244 127.712 500.308 127.584 500.308 127.424V118.272C500.436 117.984 500.724 117.248 501.268 116.512C501.908 115.648 503.348 114.752 504.884 114.784C505.78 114.816 506.58 115.264 507.06 116.096C507.7 117.088 507.7 118.432 507.7 120.064C507.7 120.064 507.7 125.536 507.7 127.424C507.7 127.744 507.956 128 508.308 128C508.628 128 509.012 128 509.3 128C509.652 128 509.908 127.744 509.908 127.424V120.064C509.908 115.488 508.308 112.64 505.364 112.544ZM526.288 119.744C526.192 117.472 525.712 115.488 524.496 114.208C523.536 113.216 522.128 112.544 519.984 112.544C517.872 112.544 516.432 113.216 515.472 114.208C514.128 115.616 513.712 117.856 513.712 120.416V120.448C513.712 123.072 514.224 125.344 515.888 126.784C517.008 127.744 518.672 128.352 521.136 128.352C522.736 128.352 524.208 127.84 525.424 126.944C525.552 126.848 525.616 126.688 525.648 126.528C525.648 126.368 525.616 126.208 525.488 126.08C525.296 125.824 525.008 125.536 524.816 125.312C524.592 125.056 524.24 125.024 524.016 125.216C523.184 125.792 522.192 126.144 521.136 126.144C519.376 126.144 518.16 125.792 517.328 125.088C516.368 124.256 516.048 123.008 515.952 121.568C515.952 121.568 523.472 121.568 525.68 121.568C525.84 121.568 526 121.504 526.128 121.408C526.224 121.28 526.288 121.12 526.288 120.96V119.744ZM515.92 119.744C515.984 118.112 516.208 116.672 517.104 115.744C517.712 115.104 518.64 114.784 519.984 114.784C521.36 114.784 522.288 115.104 522.896 115.744C523.76 116.672 524.016 118.112 524.048 119.744H515.92ZM530.637 125.184C530.317 125.184 529.933 125.184 529.613 125.184C529.293 125.184 529.037 125.44 529.037 125.792C529.037 126.272 529.037 126.944 529.037 127.424C529.037 127.744 529.293 128.032 529.613 128.032C529.933 128.032 530.317 128.032 530.637 128.032C530.989 128.032 531.245 127.744 531.245 127.424C531.245 126.944 531.245 126.272 531.245 125.792C531.245 125.44 530.989 125.184 530.637 125.184Z" fill="black"/>
<defs>
<filter id="filter0_bd_188_155" x="-85" y="-85" width="747" height="323" filterUnits="userSpaceOnUse" color-interpolation-filters="sRGB">
<feFlood flood-opacity="0" result="BackgroundImageFix"/>
<feGaussianBlur in="BackgroundImage" stdDeviation="42.5"/>
<feComposite in2="SourceAlpha" operator="in" result="effect1_backgroundBlur_188_155"/>
<feColorMatrix in="SourceAlpha" type="matrix" values="0 0 0 0 0 0 0 0 0 0 0 0 0 0 0 0 0 0 127 0" result="hardAlpha"/>
<feOffset dy="8"/>
<feComposite in2="hardAlpha" operator="out"/>
<feColorMatrix type="matrix" values="0 0 0 0 0 0 0 0 0 0 0 0 0 0 0 0 0 0 0.25 0"/>
<feBlend mode="normal" in2="effect1_backgroundBlur_188_155" result="effect2_dropShadow_188_155"/>
<feBlend mode="normal" in="SourceGraphic" in2="effect2_dropShadow_188_155" result="shape"/>
</filter>
<clipPath id="clip0_188_155">
<rect width="314" height="72" fill="white" transform="translate(42 22)"/>
</clipPath>
</defs>
</svg>
