<svg width="320" height="85" viewBox="0 0 320 85" fill="none" xmlns="http://www.w3.org/2000/svg">
<g clip-path="url(#clip0_4001_10)">
<mask id="mask0_4001_10" style="mask-type:luminance" maskUnits="userSpaceOnUse" x="0" y="0" width="320" height="85">
<path d="M320 0H0V85H320V0Z" fill="white"/>
</mask>
<g mask="url(#mask0_4001_10)">
<path d="M136.773 60.6683V62.5365V66.0861C136.773 66.5222 136.616 66.8958 136.304 67.2071C136.054 67.5183 135.71 67.6741 135.272 67.6741H110.515C110.89 69.8536 111.734 71.473 113.047 72.5315C114.672 73.9637 117.424 74.68 121.3 74.68C123.738 74.68 125.957 74.0571 127.958 72.8117C128.708 72.3137 129.364 72.4071 129.927 73.092C130.552 73.7769 132.178 75.6141 134.804 78.6033C135.116 78.9145 135.241 79.2881 135.179 79.7242C135.179 80.1603 134.991 80.5339 134.616 80.8451C130.677 83.6475 126.239 85.0486 121.3 85.0486C114.86 85.0486 109.859 83.4916 106.295 80.3781C101.981 76.766 99.8245 70.8191 99.8245 62.5365V62.4431C99.8245 54.4097 101.575 48.5558 105.076 44.8817C108.202 41.5812 112.609 39.931 118.299 39.931C123.988 39.931 128.396 41.5812 131.521 44.8817C134.772 48.2445 136.523 53.5066 136.773 60.6683ZM110.234 60.6683H126.364C126.301 56.4957 125.52 53.6314 124.019 52.0744C122.894 50.891 120.987 50.2996 118.299 50.2996C115.61 50.2996 113.704 50.891 112.578 52.0744C111.078 53.6314 110.296 56.4957 110.234 60.6683ZM179.243 61.509C179.243 61.509 179.243 61.8516 179.243 62.5365C179.243 63.1594 179.243 63.4706 179.243 63.4706C179.243 71.3796 177.399 77.0777 173.71 80.5649C170.647 83.4297 166.427 84.9242 161.05 85.0486H160.863C155.486 84.9242 151.266 83.4297 148.203 80.5649C144.514 77.0777 142.67 71.3796 142.67 63.4706C142.67 63.097 142.67 62.7857 142.67 62.5365C142.67 62.2253 142.67 61.8826 142.67 61.509C142.67 53.6 144.514 47.9019 148.203 44.4147C151.266 41.5501 155.486 40.0555 160.863 39.931H161.05C166.427 40.0555 170.647 41.5501 173.71 44.4147C177.399 47.9019 179.243 53.6 179.243 61.509ZM168.834 63.4706C168.834 63.2214 168.834 62.9411 168.834 62.6299V62.3497C168.834 61.7892 168.834 61.509 168.834 61.509C168.834 59.0178 168.678 57.0252 168.365 55.5306C168.115 54.036 167.521 52.8527 166.583 51.981C165.458 50.9225 163.582 50.362 160.956 50.2996C158.331 50.362 156.455 50.9225 155.33 51.981C154.392 52.8527 153.767 54.036 153.454 55.5306C153.204 57.0252 153.079 59.0178 153.079 61.509C153.079 61.8202 153.079 62.1004 153.079 62.3497V62.6299C153.079 62.8791 153.079 63.1594 153.079 63.4706C153.079 64.4671 153.079 65.2764 153.079 65.8993C153.079 66.5222 153.111 67.238 153.173 68.0478C153.298 68.795 153.423 69.4489 153.548 70.0094C153.736 70.5699 153.955 71.1303 154.204 71.6908C154.517 72.1889 154.892 72.6249 155.33 72.9986C156.455 74.0571 158.331 74.6175 160.956 74.68C163.582 74.6175 165.458 74.0571 166.583 72.9986C167.208 72.3757 167.708 71.535 168.084 70.4765C168.459 69.4179 168.678 68.4214 168.74 67.4873C168.803 66.4908 168.834 65.152 168.834 63.4706ZM244.504 40.8651C245.004 40.8651 245.41 41.083 245.723 41.519C246.036 41.9549 246.129 42.4219 246.004 42.9201C245.129 45.7224 242.941 52.7283 239.44 63.9377C236.001 75.147 234.063 81.499 233.625 82.9936C233.376 83.7409 232.875 84.1145 232.125 84.1145H223.591C222.779 84.1145 222.278 83.7409 222.091 82.9936L214.495 58.5198C210.494 71.5974 207.993 79.7552 206.992 82.9936C206.743 83.7409 206.242 84.1145 205.492 84.1145H196.864C196.114 84.1145 195.645 83.7409 195.458 82.9936C194.958 81.499 193.832 77.9184 192.082 72.2513C190.332 66.5222 188.55 60.7307 186.736 54.8767C184.924 49.0228 183.704 45.0375 183.079 42.9201C182.892 42.4219 182.954 41.9549 183.267 41.519C183.58 41.083 184.017 40.8651 184.58 40.8651H192.176C192.926 40.8651 193.426 41.2387 193.676 41.986L201.178 66.4598C205.242 53.3822 207.774 45.2244 208.774 41.986C208.962 41.2387 209.462 40.8651 210.275 40.8651H218.808C219.559 40.8651 220.059 41.2387 220.309 41.986L227.811 66.4598C231.875 53.3822 234.407 45.2244 235.407 41.986C235.595 41.2387 236.095 40.8651 236.908 40.8651H244.504ZM286.634 60.6683V62.5365V66.0861C286.634 66.5222 286.478 66.8958 286.165 67.2071C285.915 67.5183 285.572 67.6741 285.134 67.6741H260.376C260.752 69.8536 261.596 71.473 262.908 72.5315C264.534 73.9637 267.285 74.68 271.161 74.68C273.599 74.68 275.819 74.0571 277.819 72.8117C278.569 72.3137 279.226 72.4071 279.788 73.092C280.414 73.7769 282.039 75.6141 284.665 78.6033C284.977 78.9145 285.103 79.2881 285.04 79.7242C285.04 80.1603 284.852 80.5339 284.477 80.8451C280.539 83.6475 276.1 85.0486 271.161 85.0486C264.721 85.0486 259.72 83.4916 256.156 80.3781C251.843 76.766 249.686 70.8191 249.686 62.5365V62.4431C249.686 54.4097 251.436 48.5558 254.937 44.8817C258.063 41.5812 262.471 39.931 268.16 39.931C273.849 39.931 278.257 41.5812 281.383 44.8817C284.634 48.2445 286.384 53.5066 286.634 60.6683ZM260.095 60.6683H276.225C276.162 56.4957 275.381 53.6314 273.88 52.0744C272.755 50.891 270.848 50.2996 268.16 50.2996C265.472 50.2996 263.565 50.891 262.44 52.0744C260.939 53.6314 260.158 56.4957 260.095 60.6683ZM318.695 39.931C319.07 39.9932 319.383 40.1489 319.633 40.398C319.945 40.6471 320.102 40.9585 320.102 41.3321V51.1403C320.102 51.7008 319.883 52.1368 319.445 52.448C319.008 52.7593 318.539 52.8217 318.039 52.6349C316.601 52.1368 315.35 51.8876 314.288 51.8876C312.85 51.8252 311.505 52.0744 310.255 52.6349C309.067 53.1329 308.067 53.8182 307.254 54.6899C306.504 55.5616 305.91 56.3403 305.472 57.0252C305.035 57.6481 304.691 58.302 304.441 58.9868V82.5265C304.441 82.9626 304.284 83.3363 303.972 83.6475C303.66 83.9587 303.284 84.1145 302.847 84.1145H295.626C295.188 84.1145 294.813 83.9587 294.5 83.6475C294.188 83.3363 294.032 82.9626 294.032 82.5265V42.4531C294.032 42.0171 294.188 41.6435 294.5 41.3321C294.813 41.0208 295.188 40.8651 295.626 40.8651H302.847C303.284 40.8651 303.66 41.0208 303.972 41.3321C304.284 41.6435 304.441 42.0171 304.441 42.4531V45.7224C308.442 41.7369 313.193 39.8064 318.695 39.931Z" fill="white"/>
<path fill-rule="evenodd" clip-rule="evenodd" d="M0.222168 1.99202C0.222168 1.01402 1.01811 0.221191 1.99995 0.221191H5.77772H8.91657H10.3639C10.8024 0.221191 11.2255 0.382638 11.5517 0.674503L12.6286 1.63778L44.9666 30.5657C45.6422 31.17 46.6666 31.17 47.3422 30.5657L79.6804 1.63779L80.7573 0.674498C81.0835 0.382638 81.5066 0.221191 81.9448 0.221191H83.3924H86.5311H90.3088C91.2906 0.221191 92.0866 1.01402 92.0866 1.99202V5.75505V79.304V83.067C92.0866 84.0454 91.2906 84.8378 90.3088 84.8378H82.7533C81.7715 84.8378 80.9755 84.0454 80.9755 83.067V79.304V19.3252C80.9755 17.7929 79.1546 16.9839 78.0102 18.0077L50.0093 43.0557L48.9324 44.019C48.6062 44.311 48.1831 44.4721 47.7444 44.4721H46.2973H46.0119H44.5644C44.1259 44.4721 43.7028 44.311 43.3766 44.019L42.2997 43.0557L14.2989 18.0077C13.1544 16.9839 11.3333 17.7929 11.3333 19.3252V79.304V83.067C11.3333 84.0454 10.5373 84.8378 9.5555 84.8378H1.99995C1.01811 84.8378 0.222168 84.0454 0.222168 83.067V79.304V5.75505V1.99202Z" fill="white"/>
<path fill-rule="evenodd" clip-rule="evenodd" d="M37.0235 52.226C37.0235 50.3073 38.5929 48.7441 40.519 48.7441C42.4451 48.7441 44.0145 50.3073 44.0145 52.226C44.0145 54.1443 42.4451 55.7075 40.519 55.7075C38.5929 55.7075 37.0235 54.1443 37.0235 52.226ZM46.1547 59.687C44.1571 59.687 42.5877 60.1842 42.5877 61.6053C42.5877 62.7669 43.35 64.1654 44.9525 64.6378C44.7503 66.6296 42.9864 68.2658 40.9468 68.2658C38.7581 68.2658 36.9217 66.5384 36.9217 64.2566C36.9217 63.6453 36.4242 63.1499 35.8106 63.1499C35.1969 63.1499 34.6995 63.6453 34.6995 64.2566C34.6995 67.801 37.5713 70.4793 40.9468 70.4793C43.0372 70.4793 44.9214 69.4031 46.0609 67.7864C47.1992 69.4346 49.1112 70.4793 51.2192 70.4793C54.6152 70.4793 57.4667 67.6389 57.4667 64.2566C57.4667 63.6453 56.9694 63.1499 56.3556 63.1499C55.7418 63.1499 55.2445 63.6453 55.2445 64.2566C55.2445 66.4162 53.388 68.2658 51.2192 68.2658C49.1685 68.2658 47.4272 66.7495 47.2156 64.6812C48.9143 64.2655 49.7214 62.8599 49.7214 61.6053C49.7214 60.1133 48.152 59.687 46.1547 59.687ZM51.8614 48.7441C49.9352 48.7441 48.3658 50.3073 48.3658 52.226C48.3658 54.1443 49.9352 55.7075 51.8614 55.7075C53.7876 55.7075 55.3569 54.1443 55.3569 52.226C55.3569 50.3073 53.7876 48.7441 51.8614 48.7441Z" fill="white"/>
</g>
</g>
<defs>
<clipPath id="clip0_4001_10">
<rect width="320" height="85" fill="white"/>
</clipPath>
</defs>
</svg>