<svg width="874" height="798" viewBox="0 0 874 798" fill="none" xmlns="http://www.w3.org/2000/svg">
<path d="M110.804 26.6999L306.098 103.071C344.573 91.2153 387.986 84.8685 436.999 85.8141C486.01 84.8685 529.426 91.2153 567.898 103.071L763.192 26.6999C803.173 19.5299 838.181 53.2228 830.729 91.708L803.091 281.073C836.709 361.03 847.985 441.713 847.985 490.523C847.985 615.915 793.129 772.256 436.999 772.256C80.8669 772.256 26.0106 615.915 26.0106 490.523C26.0106 441.713 37.2871 361.03 70.9048 281.073L43.2673 91.708C35.8182 53.2228 70.8226 19.5299 110.804 26.6999Z" fill="#F9A535"/>
<path fill-rule="evenodd" clip-rule="evenodd" d="M117.973 1.82616L115.443 1.37245C58.8389 -8.77856 7.00012 38.8413 17.6004 95.9212L44.1486 277.822C11.2289 358.965 -0.000976562 439.979 -0.000976562 490.525C-0.000976562 556.641 14.4731 635.419 80.0377 697.075C145.152 758.307 255.763 798 437 798C618.235 798 728.845 758.307 793.959 697.075C859.523 635.419 873.998 556.641 873.998 490.525C873.998 439.979 862.768 358.965 829.848 277.822L856.396 95.9228C867.001 38.8393 815.155 -8.7781 758.554 1.37245L756.024 1.82616L566.706 75.8602C527.831 64.8883 484.728 59.1944 437 60.0694C389.268 59.1944 346.168 64.8885 307.291 75.8603L117.973 1.82616ZM306.098 103.073C344.573 91.2175 387.986 84.8707 437 85.8163C486.011 84.8707 529.427 91.2175 567.899 103.073L763.192 26.7022C803.174 19.5321 838.181 53.225 830.729 91.7103L803.091 281.075C836.709 361.033 847.986 441.715 847.986 490.525C847.986 615.918 793.129 772.258 437 772.258C80.8672 772.258 26.0109 615.918 26.0109 490.525C26.0109 441.715 37.2874 361.033 70.9052 281.075L43.2676 91.7103C35.8185 53.225 70.8229 19.5321 110.805 26.7022L306.098 103.073Z" fill="#844E1D"/>
<path d="M436.999 743.942C609.39 743.942 749.141 696.472 749.141 584.157C749.141 471.841 627.458 337.215 436.999 337.215C246.539 337.215 124.856 471.841 124.856 584.157C124.856 696.472 264.607 743.942 436.999 743.942Z" fill="#FEFEFE"/>
<path d="M486.421 296.024V378.399C486.421 401.146 505.055 419.586 528.04 419.586C551.026 419.586 569.659 401.146 569.659 378.399V296.024C569.659 273.276 551.026 254.836 528.04 254.836C505.055 254.836 486.421 273.276 486.421 296.024Z" fill="#844E1D"/>
<path d="M304.338 296.024V378.399C304.338 401.146 322.972 419.586 345.957 419.586C368.943 419.586 387.576 401.146 387.576 378.399V296.024C387.576 273.276 368.943 254.836 345.957 254.836C322.972 254.836 304.338 273.276 304.338 296.024Z" fill="#844E1D"/>
<path fill-rule="evenodd" clip-rule="evenodd" d="M448.703 456.601C461.611 452.947 470.815 443.545 470.815 433.495C470.815 420.604 455.676 417.02 437 417.02C418.324 417.02 403.185 420.604 403.185 433.495C403.185 443.545 412.389 452.947 425.297 456.601V476.225C425.297 494.707 410.16 509.69 391.488 509.69C381.301 509.69 372.167 505.23 365.968 498.176C362.279 493.977 355.392 492.506 351.445 496.462L349.624 498.288C345.429 502.492 344.546 509.144 348.489 513.586C358.975 525.401 374.352 532.858 391.488 532.858C410.05 532.858 426.547 524.109 437 510.55C447.453 524.109 463.95 532.858 482.512 532.858C499.648 532.858 515.025 525.401 525.511 513.587C529.454 509.144 528.571 502.493 524.376 498.288L522.555 496.463C518.608 492.506 511.721 493.977 508.032 498.176C501.833 505.231 492.699 509.69 482.512 509.69C463.84 509.69 448.703 494.707 448.703 476.225V456.601Z" fill="#844E1D"/>
</svg>